<svg width="89" height="89" viewBox="0 0 89 89" fill="none" xmlns="http://www.w3.org/2000/svg">
<g clip-path="url(#clip0_29_2730)">
<g style="mix-blend-mode:multiply" opacity="0.6">
<path d="M44.3 88.6C68.7662 88.6 88.6 68.7662 88.6 44.3C88.6 19.8338 68.7662 0 44.3 0C19.8338 0 0 19.8338 0 44.3C0 68.7662 19.8338 88.6 44.3 88.6Z" fill="#FF7F7F"/>
</g>
<path opacity="0.6" d="M44 84.2C66.0914 84.2 84 66.2913 84 44.2C84 22.1086 66.0914 4.19995 44 4.19995C21.9086 4.19995 4 22.1086 4 44.2C4 66.2913 21.9086 84.2 44 84.2Z" fill="#FF7F7F" stroke="#F8F8FF" stroke-miterlimit="10"/>
<mask id="mask0_29_2730" style="mask-type:alpha" maskUnits="userSpaceOnUse" x="5" y="7" width="77" height="77">
<circle cx="43.5" cy="45.5" r="38.5" fill="#D9D9D9"/>
</mask>
<g mask="url(#mask0_29_2730)">
<path d="M38.7534 40.1076C37.5184 40.1076 36.3181 39.9458 35.1755 39.6107C32.0707 38.7211 29.6931 36.6529 28.8044 34.0994C28.0427 31.9156 28.4582 29.6394 29.9817 27.5019L30.074 27.3748L30.628 23.4579C30.9858 23.897 31.3552 24.3592 31.7591 24.6596C31.7822 24.6827 31.8053 24.6942 31.8399 24.7173C31.9899 24.8444 32.2323 25.0293 32.6132 25.064C32.6363 25.064 32.6594 25.064 32.694 25.064C32.971 25.064 33.4096 24.9138 34.506 24.5209C35.0254 24.336 35.6256 24.1165 35.8564 24.0703C36.849 23.8508 37.8762 23.7352 38.9034 23.7352C39.9306 23.7352 40.9463 23.8508 41.9158 24.0703C42.1928 24.1396 42.7584 24.3476 43.2547 24.544C44.2472 24.9253 44.6743 25.0755 44.9859 25.0755C45.7477 25.0755 46.4286 24.2898 47.1442 23.4348L47.6982 27.3401L47.7675 27.4557C49.5103 30.2634 49.7526 32.9555 48.4715 35.2548C46.8672 38.1434 42.9546 40.0845 38.7534 40.0845V40.1076Z" fill="#7CE882"/>
<path d="M38.8919 24.394C39.8729 24.394 40.8309 24.498 41.7657 24.7175C42.0081 24.7753 42.5737 24.9833 43.0238 25.1566C44.1087 25.5725 44.5588 25.7343 44.9743 25.7343C45.6207 25.7343 46.1631 25.3877 46.6825 24.8908L47.0288 27.3172L47.0634 27.583L47.2019 27.8141C48.8177 30.4138 49.0486 32.8864 47.8944 34.9661C46.394 37.6583 42.7122 39.4723 38.7303 39.4723C34.7484 39.4723 36.4104 39.3105 35.337 38.9986C33.9058 38.5826 32.5901 37.8894 31.5513 36.9766C30.5357 36.0869 29.7855 35.0239 29.393 33.8916C28.7121 31.9158 29.0814 29.8361 30.4895 27.8718L30.6742 27.6176L30.7203 27.3057L31.055 24.9139C31.1589 25.0064 31.2628 25.0988 31.3782 25.1797C31.4013 25.1913 31.4244 25.2144 31.4359 25.2259C31.6206 25.3761 31.9784 25.6534 32.5439 25.7112C32.5901 25.7112 32.6363 25.7112 32.6824 25.7112C33.0633 25.7112 33.4903 25.5725 34.7138 25.1335C35.1639 24.9717 35.7871 24.7522 35.9949 24.706C36.9413 24.498 37.9224 24.3825 38.9034 24.3825M47.5828 22.0369C46.9595 22.4991 45.7476 24.4633 44.9974 24.4633C44.5819 24.4633 42.7699 23.6314 42.0658 23.4697C41.0386 23.2386 39.9768 23.123 38.9034 23.123C37.83 23.123 36.7566 23.2386 35.7179 23.4697C35.1062 23.6083 33.0402 24.4518 32.694 24.4518C32.3477 24.4518 32.694 24.4518 32.6824 24.4518C32.44 24.4287 32.3246 24.29 32.1515 24.1629C31.4936 23.6661 30.8588 22.58 30.201 22.0254L29.4854 27.1324C25.5496 32.6437 29.0929 38.5133 35.0138 40.2118C36.2373 40.5584 37.5069 40.7317 38.7649 40.7317C46.1631 40.7317 53.1805 34.9546 48.3214 27.1208L47.5943 22.0254L47.5828 22.0369Z" fill="#87CC64"/>
<path d="M29.8433 19.1482L33.0288 22.4643C36.0643 21.2742 39.2152 21.0316 42.4007 21.7364C45.5862 22.4412 44.4551 22.4643 44.6628 22.4643C45.0322 22.4643 47.329 19.4487 47.9176 19.1367H48.3793C48.6678 19.3216 48.9794 19.4024 49.0372 19.7953L50.0413 26.6238C54.3925 33.0018 49.7181 40.2694 42.9778 41.9794C42.7354 45.1337 43.451 50.3447 46.8442 51.6272C50.2375 52.9097 51.3455 52.54 53.8616 53.938C59.8287 57.2541 60.5558 63.1468 58.2821 69.1781C59.3093 68.6812 60.325 68.1266 61.306 67.5374C67.8848 63.6205 74.9945 57.1501 73.3325 48.6231C72.109 42.3607 67.8501 41.5635 62.6564 44.3249C62.01 44.66 59.4593 46.5202 59.1246 46.5433C58.5475 46.578 57.9935 45.9078 58.2474 45.3417C58.6052 44.5098 62.0908 42.5918 63.0373 42.1758C68.8543 39.6339 73.4363 41.4132 74.9252 47.7334C77.3605 58.0629 68.6004 65.5963 60.5442 70.01C59.517 70.5761 57.6126 71.2809 56.7932 71.9049C56.2738 72.2977 55.639 73.2336 55.0619 73.742C50.6184 77.6935 42.6315 78.433 36.9068 78.1904C36.3297 78.1673 35.0832 78.1095 34.5985 77.9593C33.5366 77.6242 33.0519 76.3648 33.5251 75.3711C33.9983 74.3775 35.014 74.5161 35.2102 73.3722C35.591 71.1307 33.2596 65.758 32.267 63.5743C30.5819 59.8769 26.9463 55.0126 27.4195 50.9224C27.7196 48.3342 29.7394 48.2187 31.3091 46.9824C32.8903 45.7345 33.7328 43.8396 34.1599 41.9101C33.0403 41.3324 31.8169 40.8933 30.7435 40.1769C26.6578 37.4501 24.7534 32.6782 26.8771 28.0219C27.0848 27.5713 27.5696 26.9936 27.7081 26.5545C28.1582 25.0871 28.2044 20.4423 28.8276 19.4949C29.4509 18.5474 29.1277 19.2753 29.2316 19.1482H29.8087H29.8433ZM47.5829 22.0368C46.9596 22.499 45.7362 24.4747 44.986 24.4632C44.2358 24.4516 42.7585 23.6313 42.0544 23.4695C39.9884 22.9958 37.784 23.0074 35.718 23.4695C33.652 23.9317 32.9711 24.4747 32.6825 24.4516C32.394 24.4285 32.3247 24.2899 32.1516 24.1628C31.4937 23.6659 30.859 22.5799 30.2011 22.0252L29.4855 27.1322C25.5498 32.6436 29.0931 38.5131 35.014 40.2116C43.4279 42.638 54.0116 36.2947 48.3216 27.1207L47.5944 22.0252L47.5829 22.0368ZM41.1311 42.4416C40.0808 42.4993 39.0189 42.6149 37.9571 42.5571C36.8953 42.4993 36.1797 42.2105 35.9373 42.3722C35.3025 44.7755 34.2522 47.0517 32.1747 48.5307C31.0321 49.351 29.4393 49.5936 29.1739 51.1766C28.7122 53.8687 30.9397 56.8959 32.0824 59.1605C33.8252 62.5921 37.8417 70.4721 36.826 74.181C36.549 75.2094 35.9027 75.6138 35.1294 76.2377C39.3537 76.5034 43.6818 76.4803 47.8022 75.4289C45.4131 73.5918 43.1509 71.304 42.6546 68.196C42.1583 65.0879 43.5433 61.9798 45.5054 59.692C45.667 59.5072 46.648 58.4788 46.775 58.4211C47.5252 58.0976 48.2523 58.7677 48.0215 59.5534C47.7906 60.3391 46.3364 61.5061 46.0363 61.9567C42.4353 67.3872 45.0783 71.8471 50.1567 74.7241C53.573 73.2914 56.0545 70.865 57.0933 67.2485C58.9515 60.7666 56.597 56.2835 50.2144 54.3078C47.756 53.5452 45.667 53.7301 43.7857 51.6272C41.6274 49.2239 41.1542 45.5728 41.1426 42.4531L41.1311 42.4416Z" fill="#003E90"/>
<path d="M37.7607 33.0133C38.107 32.9324 39.6651 32.9324 40.0114 33.0133C41.3617 33.3137 40.1845 35.2317 39.6767 35.8672C39.1688 36.5027 38.8918 36.572 38.3494 36.1676C37.8069 35.7632 37.2067 34.4922 37.1375 34.2612C36.9759 33.7412 37.1721 33.1404 37.7492 33.0133H37.7607Z" fill="#003E90"/>
<path d="M33.2595 28.0566C33.4788 28.0335 35.4063 28.9578 35.6025 29.1311C36.3642 29.8244 35.7525 30.8874 34.6561 30.6563C33.5596 30.4252 32.7748 29.6857 32.6594 29.5355C32.2439 29.0156 32.5786 28.1143 33.2595 28.0566Z" fill="#003E90"/>
<path d="M44.0973 28.172C44.9976 27.9872 45.6324 28.6573 45.1707 29.4777C44.709 30.298 43.3702 30.5753 43.1047 30.6331C42.066 30.8757 41.4427 29.9167 42.1237 29.1888C42.8046 28.4609 43.9011 28.2067 44.0973 28.172Z" fill="#003E90"/>
<path d="M39.2729 75.7409C38.465 75.7409 37.634 75.7178 36.7337 75.6832C37.0338 75.3365 37.2877 74.9206 37.4378 74.3544C38.5111 70.426 34.5639 62.65 32.6595 58.9064V58.8833C32.4056 58.4096 32.1286 57.9128 31.8285 57.3928C30.7205 55.4402 29.4625 53.2218 29.7972 51.3037C29.9357 50.5181 30.5012 50.1945 31.4245 49.7208C31.7939 49.5244 32.1863 49.328 32.5441 49.0738C34.3677 47.7797 35.6026 45.8386 36.4221 43.0078C36.6529 43.0309 36.953 43.0771 37.2069 43.1234C37.507 43.1696 37.7494 43.2158 37.911 43.2273C38.1072 43.2273 38.3034 43.2389 38.5112 43.2389C39.1229 43.2389 39.7346 43.1927 40.3232 43.158H40.4963C40.6002 47.1673 41.5235 50.0906 43.2894 52.0663C44.8014 53.7417 46.4172 54.0999 48.1369 54.4581C48.7371 54.5852 49.3604 54.7238 50.0067 54.9202C53.0191 55.8561 55.0851 57.3582 56.17 59.3917C57.2434 61.4253 57.3472 64.0134 56.4701 67.0868C55.5698 70.2527 53.4577 72.5866 50.1914 74.0309C47.4214 72.4018 45.6901 70.4029 45.1707 68.2538C44.7206 66.382 45.1938 64.3831 46.5673 62.3149C46.6942 62.1301 47.2251 61.5061 47.6176 61.0555C48.4832 60.0503 48.5755 59.9348 48.6217 59.7499C48.7717 59.2531 48.6909 58.7331 48.3909 58.3403C48.1023 57.959 47.6407 57.7279 47.1674 57.7279C46.6942 57.7279 46.7288 57.7741 46.5211 57.8666C46.1864 58.0168 45.0322 59.2877 45.0207 59.3108C42.6777 62.0492 41.5582 65.4115 42.0198 68.3231C42.5046 71.3157 44.4436 73.4994 46.3826 75.1286C44.2589 75.5561 41.916 75.7756 39.2614 75.7756L39.2729 75.7409Z" fill="#7CE882"/>
<path d="M36.8837 43.6896C36.9645 43.7011 37.0453 43.7127 37.1146 43.7242C37.4377 43.782 37.6917 43.8167 37.8994 43.8282C38.1072 43.8282 38.3034 43.8398 38.5227 43.8398C38.9843 43.8398 39.446 43.8167 39.8961 43.7936C40.0924 47.6411 41.0503 50.4835 42.8277 52.4592C44.4782 54.2964 46.2787 54.6776 48.01 55.0474C48.5986 55.1745 49.2103 55.3016 49.822 55.498C52.6613 56.3761 54.6118 57.7742 55.6044 59.6575C56.597 61.5409 56.6893 63.9672 55.8583 66.8789C55.0389 69.7559 53.146 71.905 50.226 73.28C48.4024 72.1592 46.348 70.4261 45.7824 68.0806C45.3785 66.3936 45.817 64.5565 47.0866 62.6501C47.202 62.4883 47.7561 61.8413 48.0908 61.4484C48.991 60.4085 49.1295 60.2468 49.2218 59.9117C49.4296 59.2185 49.3142 58.5021 48.8987 57.9359C48.4947 57.3929 47.8484 57.0578 47.1674 57.0578C46.4865 57.0578 46.5672 57.1156 46.2787 57.2427C46.0363 57.3467 45.8747 57.4738 45.2515 58.1093C44.9976 58.3634 44.6744 58.7101 44.5475 58.8603C43.4164 60.1775 42.5277 61.6795 41.9737 63.2162C41.3273 64.984 41.1426 66.7287 41.4081 68.3925C41.6505 69.8946 42.3084 72.0668 45.0207 74.7011C43.2663 74.9784 41.3735 75.1055 39.2729 75.1055C37.1723 75.1055 38.3495 75.1055 37.8533 75.0824C37.934 74.9091 37.9918 74.7242 38.0495 74.5163C38.5573 72.6329 38.1187 69.8946 36.676 66.1394C35.568 63.2278 34.1022 60.3392 33.225 58.6176V58.5945C32.9596 58.1093 32.6826 57.6009 32.3825 57.0694C31.3322 55.2091 30.1318 53.0947 30.4204 51.3962C30.5012 50.9572 30.7666 50.7608 31.7131 50.2755C32.0824 50.0791 32.5094 49.8595 32.9134 49.5822C34.737 48.2766 36.0181 46.3933 36.8722 43.7011M36.2028 42.3262C36.0758 42.3262 35.9835 42.3377 35.9373 42.3724C35.3025 44.7757 34.2522 47.0519 32.1747 48.5308C31.0321 49.3511 29.4394 49.5938 29.1739 51.1767C28.7122 53.8688 30.9398 56.8961 32.0824 59.1607C33.8252 62.5923 37.8417 70.4723 36.826 74.1812C36.549 75.2095 35.9027 75.6139 35.1294 76.2378C36.5029 76.3187 37.8763 76.3765 39.2614 76.3765C42.1352 76.3765 45.0091 76.1339 47.8022 75.429C45.4131 73.5919 43.1509 71.3042 42.6546 68.1961C42.1699 65.1458 43.5433 61.9799 45.5054 59.6922C45.667 59.5073 46.648 58.479 46.775 58.4212C46.9135 58.3634 47.0405 58.3403 47.1674 58.3403C47.7561 58.3403 48.2062 58.9065 48.0215 59.5535C47.9753 59.7037 46.3364 61.5062 46.0363 61.9568C42.4353 67.3873 45.0784 71.8472 50.1567 74.7242C53.5731 73.2915 56.0545 70.8651 57.0933 67.2486C58.9515 60.7667 56.597 56.2837 50.2144 54.3079C47.756 53.5453 45.667 53.7302 43.7857 51.6273C41.6274 49.224 41.1542 45.5729 41.1426 42.4533C40.277 42.4995 39.4114 42.5919 38.5342 42.5919C37.657 42.5919 38.1533 42.5919 37.9687 42.5804C37.6455 42.5688 36.6991 42.3493 36.2143 42.3493L36.2028 42.3262Z" fill="#87CC64"/>
</g>
<path opacity="0.6" fill-rule="evenodd" clip-rule="evenodd" d="M5.74427 55.7196C5.25591 53.2218 5 50.6408 5 48C5 25.9086 22.9086 8 45 8C63.0136 8 78.246 19.9074 83.2557 36.2804C79.6587 17.883 63.4506 4 44 4C21.9086 4 4 21.9086 4 44C4 48.0778 4.6102 52.0131 5.74427 55.7196Z" fill="#FFFAF5"/>
</g>
<defs>
<clipPath id="clip0_29_2730">
<rect width="88.6" height="88.6" fill="white"/>
</clipPath>
</defs>
</svg>
