<svg width="89" height="89" viewBox="0 0 89 89" fill="none" xmlns="http://www.w3.org/2000/svg">
<g clip-path="url(#clip0_29_2709)">
<g style="mix-blend-mode:multiply" opacity="0.6">
<path d="M44.3 88.6C68.7662 88.6 88.6 68.7662 88.6 44.3C88.6 19.8338 68.7662 0 44.3 0C19.8338 0 0 19.8338 0 44.3C0 68.7662 19.8338 88.6 44.3 88.6Z" fill="#CEE653"/>
</g>
<path opacity="0.6" d="M44 84.2C66.0914 84.2 84 66.2913 84 44.2C84 22.1086 66.0914 4.19995 44 4.19995C21.9086 4.19995 4 22.1086 4 44.2C4 66.2913 21.9086 84.2 44 84.2Z" fill="#CEE653" stroke="#F8F8FF" stroke-miterlimit="10"/>
<path opacity="0.6" fill-rule="evenodd" clip-rule="evenodd" d="M5.74427 55.7196C5.25591 53.2218 5 50.6408 5 48C5 25.9086 22.9086 8 45 8C63.0136 8 78.246 19.9074 83.2557 36.2804C79.6587 17.883 63.4506 4 44 4C21.9086 4 4 21.9086 4 44C4 48.0778 4.6102 52.0131 5.74427 55.7196Z" fill="#FFFAF5"/>
<path d="M45.83 21.4466L41.5134 25.8372C40.971 26.1492 39.5283 25.7101 38.8588 25.7101C38.1894 25.7101 36.8621 26.1376 36.1812 25.8603L31.8876 21.4466C31.8876 23.769 32.1069 26.0683 31.98 28.4023C29.0022 31.6143 28.1481 35.6121 29.2215 39.8525C29.5447 41.135 30.191 41.9669 30.595 43.0877C31.0913 44.4973 30.5257 46.1842 30.3872 47.6747C29.3138 59.9338 31.1721 74.2032 45.8993 76.0866C54.8672 77.2304 62.1847 71.9617 65.8665 64.1048C63.8351 66.3348 61.6999 68.5994 58.8837 69.8588C56.0098 71.1414 53.2283 71.2916 50.2851 70.0784C42.4829 66.8547 43.4063 53.5327 44.7105 46.785C45.1722 44.3702 45.2876 44.6244 46.6264 42.8219C49.3272 39.1939 49.6965 34.3065 47.2497 30.4358C44.8028 26.5651 45.6454 28.564 45.6107 28.1481C45.5761 27.7321 45.7031 27.709 45.7031 27.4895C45.7031 25.4675 45.6107 23.4339 45.8069 21.4351L45.83 21.4466Z" fill="#CCC7FF"/>
<path d="M49.6272 78.0622C48.9463 78.1084 47.9998 78.1084 47.3189 78.0622C31.5875 76.9992 27.5941 63.3883 28.4251 49.7543C29.2561 36.1204 28.9214 46.2996 29.0022 44.682C29.083 43.0644 28.4713 42.9489 28.0211 41.8512C26.1283 37.1487 26.867 31.5218 30.2371 27.6973L30.1564 20.0022C30.4449 18.9854 31.7029 18.6966 32.4532 19.4129L36.7005 23.9191C37.0468 24.2773 37.4969 23.9769 37.9124 23.9653C38.905 23.9422 39.8976 24.0231 40.8555 24.0231C42.4137 22.3593 43.9141 20.6146 45.6223 19.1125C46.3263 18.8006 47.2727 19.1587 47.4805 19.9213C47.6882 20.6839 47.5497 22.6712 47.5382 23.5609C47.5151 24.9243 47.3073 26.3224 47.4228 27.7089C51.3816 32.2381 51.7509 38.8009 48.1614 43.6768C47.8383 44.1159 47.2958 44.5665 47.0303 44.9593C46.5571 45.6526 46.3148 47.7901 46.1763 48.7145C45.2991 54.6649 44.3873 66.5889 51.8317 68.7379C58.3181 70.6097 63.6042 64.5669 66.709 59.7025C67.0783 59.1248 68.0363 57.0451 68.5672 56.9411C70.4138 56.5945 69.3982 59.6217 69.1673 60.5344C66.8821 69.3734 58.9991 77.4267 49.6157 78.0391L49.6272 78.0622ZM45.83 21.4465L41.5134 25.8371C40.9709 26.1491 39.5282 25.71 38.8588 25.71C38.1894 25.71 36.8621 26.1375 36.1811 25.8602L31.8876 21.4465C31.8876 23.7689 32.1069 26.0682 31.9799 28.4021C29.0022 31.6142 28.1481 35.612 29.2215 39.8524C29.5446 41.1349 30.191 41.9668 30.5949 43.0876C31.0912 44.4972 30.5257 46.1841 30.3872 47.6746C29.3138 59.9336 31.172 74.2031 45.8993 76.0864C54.8672 77.2303 62.1846 71.9616 65.8664 64.1047C63.8351 66.3347 61.6999 68.5993 58.8837 69.8587C56.0098 71.1412 53.2282 71.2914 50.2851 70.0782C42.4829 66.8546 43.4062 53.5326 44.7105 46.7849C45.1721 44.3701 45.2875 44.6243 46.6264 42.8218C49.3271 39.1938 49.6965 34.3063 47.2496 30.4357C44.8028 26.565 45.6453 28.5639 45.6107 28.1479C45.5761 27.732 45.703 27.7089 45.703 27.4893C45.703 25.4674 45.6107 23.4338 45.8069 21.4349L45.83 21.4465Z" fill="#421775"/>
<path d="M40.7403 41.99C40.5671 41.886 39.2052 42.2096 38.859 42.2096C38.3165 42.2096 37.6009 41.9669 37.0354 41.9554C36.8045 42.0016 36.5391 43.8965 35.3964 43.469C34.45 43.1108 34.8655 41.6203 34.6347 40.8808C34.4039 40.1413 33.4113 40.1876 33.2843 39.4481C33.1573 38.7086 33.7344 38.2811 34.3346 38.3967C34.9348 38.5122 35.3156 39.1823 35.6504 39.4019C37.4162 40.5457 39.5861 40.6844 41.4789 39.7369C42.3215 39.321 43.6141 37.5994 44.3182 38.9166C45.0222 40.2338 43.3602 40.3262 43.1294 40.7999C42.8986 41.2737 43.2563 43.5961 41.9983 43.5383C40.9365 43.4805 41.0634 42.1749 40.7518 41.9785L40.7403 41.99Z" fill="#421775"/>
<path d="M44.7566 32.2035C45.6915 33.1394 43.6024 34.6299 42.783 34.4797C41.9635 34.3295 42.1366 33.9597 42.1366 33.6131C42.1366 32.9083 44.041 31.4756 44.7566 32.2035Z" fill="#421775"/>
<path d="M33.4687 31.9607C34.4498 31.8336 36.6773 34.2023 34.8191 34.468C34.2305 34.5489 32.7762 33.613 32.6954 33.0237C32.6146 32.4345 32.9378 32.0301 33.4687 31.9607Z" fill="#421775"/>
<path d="M33.3765 24.9475L35.2 26.8193L35.3963 27.0272L35.6617 27.1312C35.9849 27.2583 36.3427 27.3276 36.7697 27.3276C37.1968 27.3276 37.7046 27.2468 38.1201 27.1774C38.3856 27.1312 38.6972 27.085 38.8588 27.085C38.9742 27.085 39.2974 27.1428 39.5282 27.1774C39.9668 27.2468 40.4631 27.3276 40.9363 27.3276C41.4095 27.3276 41.8596 27.2352 42.2059 27.0272L42.3675 26.9348L42.506 26.7961L44.318 24.959C44.318 25.3865 44.318 25.814 44.318 26.2415C44.318 26.6344 44.318 27.0388 44.318 27.4432C44.318 27.4547 44.318 27.4778 44.318 27.4894C44.2718 27.6627 44.2026 27.94 44.2372 28.2866C44.2949 28.9452 44.7335 29.4998 45.553 30.5166C45.7492 30.7477 46.0031 31.0712 46.0839 31.1868C48.1729 34.4913 47.9421 38.7432 45.5183 42.0015C45.2875 42.3135 45.0913 42.5561 44.9297 42.7756C43.9718 44.0004 43.764 44.3932 43.3485 46.5308C42.9215 48.7261 42.0097 54.4339 42.7137 59.9337C43.0484 62.6027 43.7294 64.8789 44.7335 66.7045C45.9454 68.9229 47.642 70.4942 49.7657 71.3724C51.2661 71.9963 52.7896 72.3083 54.3016 72.3083C55.8136 72.3083 56.7946 72.1003 58.0757 71.6728C58.0526 71.6959 58.018 71.7074 57.9949 71.7305C55.098 73.8103 51.8547 74.8617 48.3461 74.8617C44.8374 74.8617 46.8456 74.8155 46.0954 74.7115C42.8637 74.2956 40.1399 73.221 38.0047 71.4995C36.0888 69.9627 34.5883 67.8599 33.5265 65.2486C31.7491 60.8696 31.1605 55 31.7952 47.8017C31.8299 47.432 31.8991 47.0276 31.9684 46.6001C32.1761 45.3638 32.407 43.9773 31.9337 42.637C31.7375 42.0824 31.5067 41.6087 31.2759 41.1581C30.9989 40.6034 30.7565 40.1182 30.6064 39.5173C29.6254 35.6467 30.4564 32.1226 33.0302 29.3496L33.3649 28.9799L33.388 28.4831C33.4572 27.293 33.4342 26.1144 33.388 24.959M45.83 21.4465L41.5134 25.8371C41.3749 25.918 41.1671 25.9527 40.9363 25.9527C40.2669 25.9527 39.3551 25.71 38.8588 25.71C38.2817 25.71 37.4391 25.9527 36.7697 25.9527C36.1003 25.9527 36.3542 25.9296 36.1926 25.8602L31.8991 21.4465C31.8991 23.7689 32.1184 26.0682 31.9915 28.4022C29.0137 31.6143 28.1596 35.612 29.233 39.8524C29.5562 41.1349 30.2025 41.9668 30.6064 43.0876C31.1027 44.4972 30.5372 46.1841 30.3987 47.6746C29.3253 59.9337 31.1835 74.2032 45.9108 76.0865C46.7302 76.1905 47.5497 76.2482 48.3345 76.2482C56.1829 76.2482 62.5193 71.2453 65.8779 64.1163C63.8466 66.3463 61.7114 68.6109 58.8952 69.8703C57.3486 70.552 55.8366 70.9217 54.3016 70.9217C52.7665 70.9217 51.6585 70.656 50.2966 70.0898C42.4944 66.8662 43.4178 53.5442 44.722 46.7965C45.1836 44.3817 45.299 44.6359 46.6379 42.8334C49.3386 39.2054 49.708 34.3179 47.2611 30.4473C46.9264 29.9273 45.6568 28.5755 45.6222 28.1595C45.5991 27.94 45.7146 27.7205 45.7146 27.5009C45.7146 25.479 45.6222 23.4454 45.8184 21.4465H45.83Z" fill="#BAB7F5"/>
</g>
<defs>
<clipPath id="clip0_29_2709">
<rect width="88.6" height="88.6" fill="white"/>
</clipPath>
</defs>
</svg>
