<svg width="89" height="89" viewBox="0 0 89 89" fill="none" xmlns="http://www.w3.org/2000/svg">
<g clip-path="url(#clip0_29_2609)">
<g style="mix-blend-mode:multiply" opacity="0.6">
<path d="M44.3 88.6C68.7662 88.6 88.6 68.7662 88.6 44.3C88.6 19.8338 68.7662 0 44.3 0C19.8338 0 0 19.8338 0 44.3C0 68.7662 19.8338 88.6 44.3 88.6Z" fill="#6563FF"/>
</g>
<path opacity="0.6" d="M44 84.2C66.0914 84.2 84 66.2913 84 44.2C84 22.1086 66.0914 4.19995 44 4.19995C21.9086 4.19995 4 22.1086 4 44.2C4 66.2913 21.9086 84.2 44 84.2Z" fill="#6563FF" stroke="#F8F8FF" stroke-miterlimit="10"/>
<path d="M44.6393 65.9143C44.1199 65.9143 43.6005 65.8912 43.6005 65.8912C39.5494 65.6717 33.6862 64.6896 28.804 61.258L28.7001 61.1771C28.4001 60.9691 27.9961 60.6918 27.696 60.4376C27.7884 60.2874 27.823 60.1141 27.823 59.9408C27.7884 59.0742 26.4726 58.1268 25.3184 58.1268C24.8568 57.6646 23.5872 56.1163 23.3333 55.6542C23.3102 55.6195 23.2755 55.5617 23.1255 55.3191C22.9062 54.9609 22.3291 54.0366 22.2368 53.8402V53.817L22.2022 53.7824C20.5402 50.6512 19.5245 47.4276 19.259 44.4466C22.2714 43.6955 25.1222 42.0086 26.9458 39.848C26.992 39.7902 27.0497 39.7324 27.0958 39.6747C27.546 39.1547 27.8922 38.7503 27.8576 37.7336C27.8345 37.2252 27.8114 36.7514 27.7883 36.2777C27.696 34.5099 27.6152 32.9732 27.8576 31.0552C28.1577 28.7444 28.7925 26.2024 29.6812 23.7876C32.4281 26.757 35.729 29.6918 39.734 32.7306L39.8148 32.7883L39.9072 32.823C40.0687 32.8808 40.2534 32.9154 40.4727 32.9154C40.8074 32.9154 41.1883 32.8461 41.5115 32.7883C41.7192 32.7537 41.927 32.7075 42.0655 32.6959C42.8272 32.6381 43.6351 32.615 44.4661 32.615C45.2971 32.615 46.1281 32.6381 46.9361 32.6959C47.0976 32.6959 47.3285 32.7537 47.5593 32.7999C47.894 32.8692 48.2403 32.9385 48.5288 32.9385C48.8174 32.9385 48.5865 32.9385 48.6211 32.9385C48.8751 32.927 49.1867 32.9039 51.8875 30.697C53.2032 29.6109 54.5536 28.4555 54.946 28.0973C56.5041 26.6993 58.0046 25.1741 59.3319 23.7992C60.2667 26.5491 60.8554 29.0101 61.1324 31.2978C61.2593 32.3724 61.4094 33.9207 61.3747 35.2263C61.3747 35.4574 61.3286 35.804 61.2824 36.1853C61.1324 37.3985 61.04 38.2997 61.2824 38.8659C61.5594 39.5129 63.1753 41.0034 63.1983 41.015C64.5949 42.2859 66.3492 43.3489 67.9881 43.9382C68.219 44.0191 68.6114 44.1115 69.0269 44.2155C69.2577 44.2733 69.5578 44.3426 69.7771 44.4003C69.7656 44.643 69.6963 45.0936 69.5347 45.9486C69.5232 46.0295 69.5117 46.0988 69.5001 46.145C68.3229 52.6154 65.2643 56.359 64.6641 57.0407C64.641 57.0638 64.6295 57.0753 64.618 57.0869L64.5372 57.1909C63.9716 57.8957 63.7177 58.1383 63.6023 58.2077C63.1868 58.3232 62.4481 58.7738 62.4135 58.7969C61.594 59.3053 61.2593 59.6982 61.2709 60.1488C61.2709 60.195 61.2709 60.2874 61.3286 60.4145C61.294 60.4376 61.2709 60.4607 61.2362 60.4838C61.1901 60.5185 61.1554 60.5416 61.1439 60.5532C57.3813 63.6381 51.7951 65.533 45.401 65.9028H45.3664C45.2048 65.9259 44.9624 65.9259 44.6623 65.9259L44.6393 65.9143Z" fill="#B1D8EF"/>
<path d="M29.935 24.9663C32.5666 27.7046 35.6597 30.4199 39.3531 33.216L39.5031 33.3315L39.6762 33.4009C39.9071 33.4817 40.1725 33.528 40.4611 33.528C40.7496 33.528 41.2575 33.4471 41.6153 33.3893C41.7884 33.3546 41.9846 33.32 42.0885 33.3084C42.8387 33.2622 43.6351 33.2275 44.443 33.2275C45.2624 33.2275 46.0704 33.2507 46.8667 33.3084C46.9822 33.3084 47.213 33.3662 47.4092 33.4009C47.7785 33.4702 48.1479 33.5511 48.5057 33.5511C48.8634 33.5511 48.5865 33.5511 48.6326 33.5511C49.1174 33.528 49.5444 33.4009 52.2683 31.1709C53.5956 30.0848 54.9459 28.9063 55.3499 28.5481C56.6426 27.3811 57.8891 26.1448 59.0317 24.9663C59.7588 27.2771 60.2436 29.3684 60.4744 31.3442C60.6591 32.8463 60.7399 34.175 60.7053 35.1802C60.7053 35.3766 60.6591 35.7348 60.6129 36.0814C60.4398 37.4333 60.359 38.3807 60.6706 39.0971C61.0169 39.9059 62.7251 41.4542 62.7366 41.4773C64.2024 42.7944 66.026 43.9037 67.7457 44.5276C68.0112 44.62 68.4036 44.7124 68.8537 44.828C68.9114 44.8395 68.9807 44.8627 69.0615 44.8742C69.0268 45.1053 68.9691 45.4057 68.8883 45.8217C68.8768 45.9025 68.8537 45.9719 68.8537 46.0181C67.7111 52.3267 64.7449 55.9547 64.1678 56.6133C64.1447 56.648 64.1216 56.6711 64.1101 56.6826C64.087 56.7173 64.0523 56.752 64.0177 56.7866C63.6022 57.295 63.3829 57.5376 63.2675 57.6416C62.852 57.7918 62.3442 58.0807 62.0556 58.2656C61.3285 58.7162 60.6014 59.2939 60.6129 60.1489C56.9542 63.1068 51.5296 64.9208 45.3317 65.279H45.2971H45.2624C45.1586 65.279 44.9739 65.3021 44.6276 65.3021C44.1313 65.3021 43.6235 65.279 43.6235 65.279C39.6532 65.0594 33.9169 64.112 29.1617 60.7613L29.0579 60.6804C28.8963 60.5649 28.6539 60.4031 28.4346 60.2298C28.4462 60.1373 28.4577 60.0334 28.4462 59.9409C28.4115 59.0744 27.7075 58.462 27.292 58.1731C26.9688 57.9536 26.3571 57.5954 25.5954 57.5261C25.0875 56.9715 24.0834 55.7236 23.8756 55.3654C23.8526 55.3192 23.8295 55.273 23.6564 55.0073C23.4717 54.7184 22.9408 53.8518 22.8138 53.6092V53.5745L22.7676 53.4937C21.2441 50.6167 20.2746 47.6819 19.9515 44.932C22.8946 44.0885 25.63 42.4016 27.4305 40.2641C27.4767 40.2063 27.5228 40.1485 27.569 40.1023C28.0422 39.5593 28.5269 38.9931 28.4808 37.7221C28.4577 37.2138 28.4346 36.7285 28.4115 36.2663C28.3192 34.5216 28.2384 33.0196 28.4808 31.1478C28.7347 29.1951 29.231 27.0576 29.9235 25.0009M59.5742 22.5861C57.9352 24.3077 56.2732 26.0177 54.5073 27.6006C53.7571 28.2823 49.1405 32.2454 48.5749 32.2801C48.5518 32.2801 48.5403 32.2801 48.5172 32.2801C48.0902 32.2801 47.3977 32.0721 46.9591 32.0375C46.1396 31.9797 45.2971 31.9566 44.4545 31.9566C43.6351 31.9566 42.8041 31.9797 42.0077 32.0375C41.5922 32.0606 40.9458 32.257 40.4611 32.257C39.9763 32.257 40.2072 32.2454 40.1148 32.2108C36.2945 29.3222 32.6473 26.1679 29.4503 22.5861C28.4 25.1974 27.5805 28.1437 27.2227 30.9629C26.8996 33.4586 27.1189 35.3073 27.2227 37.7452C27.2574 38.6003 26.9919 38.8082 26.4725 39.4206C24.5335 41.7083 21.5096 43.3259 18.6011 43.9268C18.8088 47.4624 20.0092 50.9633 21.6596 54.0598C21.7289 54.2562 22.733 55.8507 22.7792 55.9432C23.1139 56.5555 24.9029 58.7162 25.1106 58.7624C25.1799 58.7624 25.2491 58.7508 25.3184 58.7508C26.5302 58.7508 27.9037 60.1836 26.7611 60.2876C26.7034 60.5186 26.8534 60.5071 26.9573 60.6111C27.3035 60.9692 28.0191 61.4661 28.4577 61.7665C32.832 64.8399 38.2797 66.2264 43.5889 66.5153C43.5889 66.5153 44.1198 66.5384 44.6623 66.5384C45.2047 66.5384 45.2163 66.5384 45.4356 66.5037C51.0333 66.1918 57.1504 64.6204 61.5478 61.0155C61.6632 60.923 62.3903 60.4031 62.2518 60.276C61.04 60.172 63.4983 58.8202 63.7984 58.7739C64.0985 58.7277 64.8833 57.7341 65.1257 57.4452C65.2411 57.3066 68.8191 53.459 70.1464 46.2029C70.2156 45.8332 70.5965 44.0423 70.3657 43.8805C70.1464 43.7303 68.6806 43.453 68.2189 43.2913C66.6031 42.7136 64.9064 41.6506 63.6369 40.4952C63.256 40.1485 62.0556 38.9584 61.8825 38.5656C61.594 37.907 61.9979 36.0006 62.021 35.1918C62.0556 33.9324 61.9287 32.4303 61.7786 31.1709C61.4208 28.2246 60.6014 25.336 59.6088 22.563L59.5742 22.5861Z" fill="#6BAFDD"/>
<path d="M15 62.5983C15.8541 61.7895 17.1468 61.2695 18.2317 60.8189C19.8244 60.1603 21.4864 59.6288 23.1831 59.2591C22.8022 58.9125 21.1056 56.2203 20.9209 56.1626C20.6439 56.0701 19.1666 56.5208 18.7857 56.6479C18.3125 56.7981 17.2391 57.3642 16.8813 57.3989C16.3273 57.4451 15.7733 56.7403 16.0157 56.1857C16.3504 55.4 19.1089 54.753 19.9629 54.545C18.2663 50.9401 17.0083 47.0925 16.7428 43.0832C16.8582 42.0895 18.7395 42.1357 19.5936 41.8931C21.8442 41.2576 23.9333 39.6862 25.4453 37.9416C24.9028 32.6035 25.8261 26.8495 27.8344 21.8927C28.1575 21.107 28.5731 19.4317 29.7041 20.1943C30.2351 20.5409 31.3431 22.1469 31.8855 22.7362C34.4939 25.5208 37.6102 28.0049 40.588 30.3966C42.1346 30.4891 43.6927 30.1771 45.2508 30.2233C46.809 30.2695 47.8362 30.7548 48.748 30.154C51.2179 28.5364 55.0036 24.9777 57.058 22.7824C57.6351 22.17 58.6854 20.6449 59.2394 20.2405C59.7934 19.8361 60.3358 20.0094 60.6821 20.6449C61.9978 23.0828 63.1405 28.0858 63.4867 30.8704C63.7868 33.2505 63.7868 35.5614 63.556 37.9416C65.0679 39.6747 67.157 41.2576 69.4076 41.8931C71.6583 42.5286 71.6698 42.1588 72.0276 42.6095C72.3854 43.0601 72.0969 44.7701 71.993 45.4634C71.4967 48.6292 70.3771 51.6564 69.0268 54.545C69.8231 54.7183 74.2782 55.6889 72.8009 57.1678C71.3236 58.6467 70.8965 56.8905 70.204 56.6594C69.5115 56.4283 68.4266 56.0586 68.0688 56.1857C67.711 56.3128 66.1875 58.9356 65.8066 59.2822C67.6995 59.6982 69.6385 60.3221 71.4159 61.1078C72.2123 61.466 74.4398 62.2401 73.8512 63.3609C73.2626 64.4816 71.5082 63.0604 70.7234 62.7254C68.7151 61.8704 66.6376 61.1887 64.4909 60.7843C63.0828 61.8935 61.7555 63.072 60.2204 64.0194C50.3176 70.1663 35.6828 69.6348 26.4725 62.4019C26.0339 62.0668 24.9028 60.8305 24.4988 60.7958C23.9217 60.738 21.3018 61.5931 20.5862 61.8357C19.8706 62.0783 19.028 62.4134 18.2663 62.7369C17.2737 63.1644 15.7387 64.5278 15 63.2222V62.6445V62.5983ZM43.5657 66.5152V60.2297L40.1263 56.1741C39.5608 55.0303 40.1725 53.8864 41.4536 53.7246C42.7347 53.5629 46.3358 53.5629 47.5361 53.7246C48.898 53.9095 49.4059 55.2267 48.6903 56.359L45.3201 60.3683C45.3201 62.4134 45.1931 64.4816 45.4124 66.5152C51.0101 66.2032 57.1273 64.6318 61.5246 61.0269C65.922 57.422 62.3672 60.4145 62.2287 60.2874C61.0168 60.1834 59.8165 59.9293 58.6046 59.8253C57.3927 59.7213 55.4999 59.883 54.5996 59.6866C53.7109 59.4902 53.6301 58.1037 54.692 57.9766C56.7118 57.7339 59.9665 58.1846 62.0556 58.4619C64.1446 58.7392 63.4983 58.8316 63.7984 58.7969C64.0984 58.7623 64.8833 57.7571 65.1257 57.4682C65.368 57.1793 66.3606 55.8622 66.2798 55.8044C64.1446 55.5502 61.9286 55.4693 59.7703 55.5733C57.612 55.6773 56.2732 56.1164 55.7422 55.8159C55.1421 55.4809 55.2113 54.5565 55.8577 54.3023C56.504 54.0481 56.6079 54.1406 56.9195 54.0944C58.8585 53.794 60.9476 53.8055 62.8981 53.7246L67.4225 54.0597C68.669 51.5871 69.6269 48.9758 70.1463 46.2375C70.2155 45.8678 70.5964 44.0768 70.3656 43.9151C70.1348 43.7533 68.6805 43.4876 68.2188 43.3258C66.603 42.7481 64.9064 41.6851 63.6368 40.5297C62.3672 39.3743 62.0556 38.993 61.8824 38.6001C61.5939 37.9416 61.9979 36.0351 62.0209 35.2263C62.0556 33.9669 61.9286 32.4648 61.7786 31.2054C61.4208 28.2591 60.6013 25.3705 59.6087 22.5975C57.9698 24.3191 56.3078 26.0291 54.5419 27.6121C53.7917 28.2938 49.175 32.2569 48.6095 32.2915C48.0439 32.3262 47.4553 32.0836 46.9936 32.0489C45.3893 31.9449 43.6581 31.9334 42.0422 32.0489C41.5113 32.0836 40.5995 32.384 40.1494 32.2107C36.3291 29.3221 32.6819 26.1678 29.4849 22.586C28.4346 25.1972 27.6151 28.1436 27.2573 30.9628C26.8995 33.782 27.1534 35.3072 27.2573 37.7451C27.2919 38.6001 27.0265 38.8081 26.5071 39.4205C24.5681 41.7082 21.5442 43.3258 18.6356 43.9266C18.8434 47.4622 20.0437 50.9632 21.6942 54.0597C25.1452 53.7246 28.7 53.5398 32.1394 54.0713C33.2244 54.233 34.2285 54.4179 33.4436 55.7466C32.151 56.0701 30.6275 55.608 29.2771 55.5502C27.1188 55.4462 24.9028 55.5271 22.7676 55.7813C22.606 55.8968 24.9028 58.7045 25.1567 58.7623C26.4148 58.5774 27.6728 58.3348 28.9424 58.2077C30.212 58.0806 32.855 57.8033 34.3554 57.9766C35.4173 58.1037 35.3365 59.4902 34.4478 59.6866C33.5475 59.8946 31.5393 59.7328 30.4428 59.8253C29.3463 59.9177 28.0306 60.1834 26.8187 60.2874C26.761 60.5185 26.911 60.507 27.0149 60.611C27.3612 60.9691 28.0768 61.466 28.5153 61.7664C32.8897 64.8398 38.3373 66.2263 43.6465 66.5152H43.5657ZM47.0167 55.5617H41.9499L44.4429 58.5543C44.5814 58.589 44.6391 58.4619 44.7199 58.381C45.5163 57.63 46.2319 56.359 47.0283 55.5617H47.0167Z" fill="#2A2F64"/>
<path d="M57.1389 42.4477C57.9122 42.39 59.8051 42.1127 60.0128 43.0717C60.3937 44.7701 59.228 47.4623 58.143 48.7563C55.5115 51.9107 52.049 51.1019 49.279 48.6408C48.5173 47.9591 48.1248 47.6934 48.7135 46.6997C50.1908 44.1578 54.3689 42.6788 57.1505 42.4593L57.1389 42.4477ZM57.8314 44.1693C55.1307 44.2964 52.2799 45.2092 50.4794 47.3121C52.1875 48.7563 54.3343 49.9349 56.2964 48.1786C57.0812 47.4854 58.2469 45.4287 58.2931 44.4004C58.3393 43.3721 58.0276 44.1578 57.8314 44.1693Z" fill="#2A2F64"/>
<path d="M29.6003 42.4362C30.3389 42.2745 31.874 42.4362 32.6703 42.5402C35.2211 42.8637 38.1642 44.0769 39.8262 46.0989C40.6803 47.1388 40.9227 47.4739 39.8839 48.4675C36.179 52.0147 31.6316 51.5872 29.5772 46.6766C29.2078 45.7985 28.2614 42.7366 29.6003 42.4362ZM30.6621 44.1462C30.9737 45.8447 31.9548 48.1209 33.6629 48.8142C35.3711 49.5074 37.1139 48.4444 38.4989 47.3121C36.6292 45.0359 33.5244 44.2502 30.6736 44.1462H30.6621Z" fill="#2A2F64"/>
<path d="M59.5512 36.6128C58.7548 37.4101 57.7045 36.012 57.0351 35.5614C56.2964 35.0646 55.2692 34.5331 54.4151 34.2558C53.561 33.9785 52.4646 33.9323 52.0029 33.6781C51.4604 33.3777 51.5528 32.6613 51.9106 32.2569C52.5223 31.5636 54.0689 30.6162 54.8537 29.8998C55.6385 29.1835 56.2387 28.5364 56.8735 27.8778C57.3583 27.3695 57.6583 26.4105 58.5701 26.8611C59.4819 27.3117 59.4473 28.8946 59.5627 29.5648C59.8166 31.0899 59.8397 32.6266 59.8051 34.1518C59.7705 35.6769 59.9551 36.1969 59.5512 36.6013V36.6128ZM58.0738 34.1171C58.0392 33.3314 58.12 32.5342 58.0738 31.7485C58.0277 30.9628 57.8546 29.611 57.6699 29.611L54.6229 32.488C55.8694 32.7999 56.9889 33.4354 58.0738 34.1056V34.1171Z" fill="#2A2F64"/>
<path d="M31.4355 26.9998C31.6202 27.15 31.8972 27.67 32.1049 27.8895C32.7051 28.5134 33.3745 29.2067 34.0093 29.7959C35.0711 30.7665 36.3523 31.5637 37.2987 32.6152C37.7488 34.0248 35.7637 33.8977 34.8172 34.175C33.8362 34.4638 32.8551 34.9491 32.0126 35.5268C31.1701 36.1045 30.4775 36.9133 30.039 36.8902C29.6004 36.8671 29.231 36.4743 29.1733 36.0237C28.9771 34.6372 29.1272 31.8295 29.3003 30.3968C29.4734 28.964 29.8312 25.7057 31.4355 27.0114V26.9998ZM34.3556 32.2685C34.3209 32.2223 33.6054 31.7833 33.4322 31.6331C32.7974 31.0785 32.1049 30.2812 31.4701 29.7844C30.8353 29.2875 31.297 29.5071 31.1816 29.7266C31.0662 29.9461 30.9161 31.4251 30.893 31.7486C30.8469 32.5343 30.9277 33.3315 30.893 34.1172C31.5048 33.7937 32.0703 33.3893 32.6936 33.1004C33.3168 32.8116 34.0093 32.696 34.2748 32.5112C34.5402 32.3263 34.3786 32.3148 34.344 32.2801L34.3556 32.2685Z" fill="#2A2F64"/>
<path d="M34.3556 32.2684C34.321 32.2222 33.6054 31.7831 33.4323 31.6329C32.7975 31.0783 32.105 30.2811 31.4702 29.7842C30.8354 29.2874 31.297 29.5069 31.1816 29.7265C31.0662 29.946 30.9162 31.4249 30.8931 31.7484C30.8469 32.5341 30.9277 33.3314 30.8931 34.1171C31.5048 33.7935 32.0703 33.3891 32.6936 33.1003C33.3168 32.8114 34.0093 32.6959 34.2748 32.511C34.5403 32.3262 34.3787 32.3146 34.3441 32.2799L34.3556 32.2684Z" fill="#EDECED"/>
<path d="M58.0738 34.117C58.0392 33.3313 58.1199 32.5341 58.0738 31.7484C58.0276 30.9627 57.8545 29.6108 57.6698 29.6108L54.6228 32.4878C55.8693 32.7998 56.9889 33.4353 58.0738 34.1054V34.117Z" fill="#EDECED"/>
<path d="M30.6621 44.1462C30.9737 45.8447 31.9548 48.1209 33.663 48.8141C35.3711 49.5074 37.1139 48.4444 38.4989 47.3121C36.6292 45.0359 33.5245 44.2502 30.6736 44.1462H30.6621Z" fill="#FFDB7D"/>
<path d="M57.8313 44.1692C55.1306 44.2963 52.2798 45.2091 50.4792 47.312C52.1874 48.7563 54.3342 49.9348 56.2963 48.1786C57.0811 47.4853 58.2468 45.4286 58.293 44.4003C58.3391 43.372 58.0275 44.1577 57.8313 44.1692Z" fill="#FFDB7D"/>
<path d="M47.0168 55.5618H41.95L44.443 58.5543C44.5815 58.589 44.6392 58.4619 44.72 58.381C45.5163 57.63 46.2319 56.359 47.0283 55.5618H47.0168Z" fill="#81A5B8"/>
<path opacity="0.6" fill-rule="evenodd" clip-rule="evenodd" d="M5.74427 55.7196C5.25591 53.2218 5 50.6408 5 48C5 25.9086 22.9086 8 45 8C63.0136 8 78.246 19.9074 83.2557 36.2804C79.6587 17.883 63.4506 4 44 4C21.9086 4 4 21.9086 4 44C4 48.0778 4.6102 52.0131 5.74427 55.7196Z" fill="#E1E1FF"/>
</g>
<defs>
<clipPath id="clip0_29_2609">
<rect width="88.6" height="88.6" fill="white"/>
</clipPath>
</defs>
</svg>
