<svg width="230" height="89" viewBox="0 0 230 89" fill="none" xmlns="http://www.w3.org/2000/svg">
<g clip-path="url(#clip0_29_2608)">
<g style="mix-blend-mode:multiply" opacity="0.6">
<path d="M44.4001 88.6C68.8663 88.6 88.7001 68.7662 88.7001 44.3C88.7001 19.8338 68.8663 0 44.4001 0C19.9339 0 0.100098 19.8338 0.100098 44.3C0.100098 68.7662 19.9339 88.6 44.4001 88.6Z" fill="#E263FF"/>
</g>
<path opacity="0.6" d="M44.1001 84.2C66.1915 84.2 84.1001 66.2913 84.1001 44.2C84.1001 22.1086 66.1915 4.19995 44.1001 4.19995C22.0087 4.19995 4.1001 22.1086 4.1001 44.2C4.1001 66.2913 22.0087 84.2 44.1001 84.2Z" fill="#E263FF" stroke="#F8F8FF" stroke-miterlimit="10"/>
<path d="M44.7957 65.9143C44.2764 65.9143 43.757 65.8912 43.757 65.8912C39.7059 65.6717 33.8427 64.6896 28.9605 61.258L28.8566 61.1771C28.5566 60.9691 28.1526 60.6918 27.8525 60.4376C27.9449 60.2874 27.9795 60.1141 27.9795 59.9408C27.9448 59.0742 26.6291 58.1268 25.4749 58.1268C25.0133 57.6646 23.7437 56.1163 23.4897 55.6542C23.4667 55.6195 23.432 55.5617 23.282 55.3191C23.0627 54.9609 22.4856 54.0366 22.3933 53.8402V53.817L22.3587 53.7824C20.6967 50.6512 19.681 47.4276 19.4155 44.4466C22.4279 43.6955 25.2787 42.0086 27.1023 39.848C27.1485 39.7902 27.2062 39.7324 27.2523 39.6747C27.7025 39.1547 28.0487 38.7503 28.0141 37.7336C27.991 37.2252 27.9679 36.7514 27.9448 36.2777C27.8525 34.5099 27.7717 32.9732 28.0141 31.0552C28.3142 28.7444 28.949 26.2024 29.8377 23.7876C32.5846 26.757 35.8855 29.6918 39.8905 32.7306L39.9713 32.7883L40.0636 32.823C40.2252 32.8808 40.4099 32.9154 40.6292 32.9154C40.9639 32.9154 41.3448 32.8461 41.6679 32.7883C41.8757 32.7537 42.0835 32.7075 42.222 32.6959C42.9837 32.6381 43.7916 32.615 44.6226 32.615C45.4536 32.615 46.2846 32.6381 47.0926 32.6959C47.2541 32.6959 47.485 32.7537 47.7158 32.7999C48.0505 32.8692 48.3968 32.9385 48.6853 32.9385C48.9739 32.9385 48.743 32.9385 48.7776 32.9385C49.0316 32.927 49.3432 32.9039 52.0439 30.697C53.3597 29.6109 54.7101 28.4555 55.1025 28.0973C56.6606 26.6993 58.1611 25.1741 59.4884 23.7992C60.4232 26.5491 61.0119 29.0101 61.2889 31.2978C61.4158 32.3724 61.5659 33.9207 61.5312 35.2263C61.5312 35.4574 61.4851 35.804 61.4389 36.1853C61.2889 37.3985 61.1965 38.2997 61.4389 38.8659C61.7159 39.5129 63.3317 41.0034 63.3548 41.015C64.7514 42.2859 66.5057 43.3489 68.1446 43.9382C68.3755 44.0191 68.7679 44.1115 69.1834 44.2155C69.4142 44.2733 69.7143 44.3426 69.9336 44.4003C69.9221 44.643 69.8528 45.0936 69.6912 45.9486C69.6797 46.0295 69.6681 46.0988 69.6566 46.145C68.4794 52.6154 65.4208 56.359 64.8206 57.0407C64.7975 57.0638 64.786 57.0753 64.7745 57.0869L64.6937 57.1909C64.1281 57.8957 63.8742 58.1383 63.7588 58.2077C63.3433 58.3232 62.6046 58.7738 62.57 58.7969C61.7505 59.3053 61.4158 59.6982 61.4274 60.1488C61.4274 60.195 61.4274 60.2874 61.4851 60.4145C61.4505 60.4376 61.4274 60.4607 61.3927 60.4838C61.3466 60.5185 61.3119 60.5416 61.3004 60.5532C57.5378 63.6381 51.9516 65.533 45.5575 65.9028H45.5229C45.3613 65.9259 45.1189 65.9259 44.8188 65.9259L44.7957 65.9143Z" fill="#C7E2AB"/>
<path d="M30.0915 24.9661C32.7231 27.7045 35.8162 30.4197 39.5096 33.2159L39.6596 33.3314L39.8327 33.4007C40.0636 33.4816 40.329 33.5278 40.6176 33.5278C40.9061 33.5278 41.414 33.447 41.7717 33.3892C41.9449 33.3545 42.1411 33.3199 42.245 33.3083C42.9952 33.2621 43.7915 33.2274 44.5995 33.2274C45.4189 33.2274 46.2269 33.2505 47.0232 33.3083C47.1386 33.3083 47.3695 33.3661 47.5657 33.4007C47.935 33.4701 48.3044 33.5509 48.6621 33.5509C49.0199 33.5509 48.743 33.5509 48.7891 33.5509C49.2739 33.5278 49.7009 33.4007 52.4248 31.1708C53.7521 30.0847 55.1024 28.9061 55.5064 28.548C56.7991 27.381 58.0456 26.1447 59.1882 24.9661C59.9153 27.277 60.4001 29.3683 60.6309 31.3441C60.8156 32.8461 60.8964 34.1749 60.8617 35.1801C60.8617 35.3765 60.8156 35.7347 60.7694 36.0813C60.5963 37.4332 60.5155 38.3806 60.8271 39.097C61.1734 39.9058 62.8815 41.454 62.8931 41.4771C64.3589 42.7943 66.1825 43.9035 67.9022 44.5275C68.1677 44.6199 68.5601 44.7123 69.0102 44.8279C69.0679 44.8394 69.1372 44.8625 69.218 44.8741C69.1833 45.1052 69.1256 45.4056 69.0448 45.8215C69.0333 45.9024 69.0102 45.9717 69.0102 46.018C67.8676 52.3266 64.9013 55.9546 64.3243 56.6132C64.3012 56.6478 64.2781 56.671 64.2666 56.6825C64.2435 56.7172 64.2088 56.7518 64.1742 56.7865C63.7587 57.2949 63.5394 57.5375 63.424 57.6415C63.0085 57.7917 62.5007 58.0806 62.2121 58.2654C61.485 58.7161 60.7579 59.2938 60.7694 60.1488C57.1107 63.1067 51.6861 64.9207 45.4882 65.2789H45.4536H45.4189C45.3151 65.2789 45.1304 65.302 44.7841 65.302C44.2878 65.302 43.78 65.2789 43.78 65.2789C39.8097 65.0593 34.0734 64.1119 29.3182 60.7612L29.2144 60.6803C29.0528 60.5647 28.8104 60.403 28.5911 60.2297C28.6027 60.1372 28.6142 60.0332 28.6027 59.9408C28.568 59.0742 27.864 58.4619 27.4485 58.173C27.1253 57.9535 26.5136 57.5953 25.7518 57.526C25.244 56.9714 24.2399 55.7235 24.0321 55.3653C24.0091 55.3191 23.986 55.2729 23.8128 55.0071C23.6282 54.7183 23.0973 53.8517 22.9703 53.6091V53.5744L22.9241 53.4935C21.4006 50.6165 20.4311 47.6818 20.108 44.9319C23.0511 44.0884 25.7865 42.4015 27.587 40.2639C27.6331 40.2062 27.6793 40.1484 27.7255 40.1022C28.1987 39.5591 28.6834 38.993 28.6373 37.722C28.6142 37.2136 28.5911 36.7284 28.568 36.2662C28.4757 34.5215 28.3949 33.0194 28.6373 31.1477C28.8912 29.195 29.3875 27.0575 30.08 25.0008M59.7307 22.586C58.0917 24.3076 56.4297 26.0176 54.6638 27.6005C53.9136 28.2822 49.297 32.2453 48.7314 32.28C48.7083 32.28 48.6968 32.28 48.6737 32.28C48.2467 32.28 47.5542 32.072 47.1156 32.0373C46.2961 31.9796 45.4536 31.9565 44.611 31.9565C43.7915 31.9565 42.9605 31.9796 42.1642 32.0373C41.7487 32.0604 41.1023 32.2569 40.6176 32.2569C40.1328 32.2569 40.3637 32.2453 40.2713 32.2106C36.451 29.3221 32.8038 26.1678 29.6068 22.586C28.5565 25.1972 27.737 28.1436 27.3792 30.9628C27.0561 33.4585 27.2754 35.3072 27.3792 37.7451C27.4139 38.6001 27.1484 38.8081 26.629 39.4205C24.69 41.7082 21.6661 43.3258 18.7576 43.9266C18.9653 47.4622 20.1657 50.9632 21.8161 54.0597C21.8854 54.2561 22.8895 55.8506 22.9357 55.943C23.2704 56.5554 25.0593 58.7161 25.2671 58.7623C25.3363 58.7623 25.4056 58.7507 25.4749 58.7507C26.6867 58.7507 28.0602 60.1834 26.9176 60.2874C26.8599 60.5185 27.0099 60.507 27.1138 60.6109C27.46 60.9691 28.1756 61.466 28.6142 61.7664C32.9885 64.8398 38.4362 66.2263 43.7454 66.5152C43.7454 66.5152 44.2763 66.5383 44.8188 66.5383C45.3612 66.5383 45.3728 66.5383 45.5921 66.5036C51.1898 66.1916 57.3069 64.6203 61.7043 61.0153C61.8197 60.9229 62.5468 60.403 62.4083 60.2759C61.1965 60.1719 63.6548 58.82 63.9549 58.7738C64.255 58.7276 65.0398 57.7339 65.2822 57.4451C65.3976 57.3064 68.9756 53.4589 70.3029 46.2028C70.3721 45.8331 70.753 44.0422 70.5222 43.8804C70.3029 43.7302 68.8371 43.4529 68.3754 43.2912C66.7596 42.7134 65.0629 41.6505 63.7933 40.495C63.4125 40.1484 62.2121 38.9583 62.039 38.5655C61.7505 37.9069 62.1544 36.0004 62.1775 35.1916C62.2121 33.9322 62.0852 32.4302 61.9351 31.1708C61.5773 28.2244 60.7579 25.3359 59.7653 22.5629L59.7307 22.586Z" fill="#B3CBA8"/>
<path d="M15.1565 62.5983C16.0106 61.7895 17.3033 61.2695 18.3882 60.8189C19.9809 60.1603 21.6429 59.6288 23.3396 59.2591C22.9587 58.9125 21.2621 56.2203 21.0774 56.1626C20.8004 56.0701 19.323 56.5208 18.9422 56.6479C18.469 56.7981 17.3956 57.3642 17.0378 57.3989C16.4838 57.4451 15.9298 56.7403 16.1722 56.1857C16.5069 55.4 19.2653 54.753 20.1194 54.545C18.4228 50.9401 17.1647 47.0925 16.8993 43.0832C17.0147 42.0895 18.896 42.1357 19.7501 41.8931C22.0007 41.2576 24.0898 39.6862 25.6017 37.9416C25.0593 32.6035 25.9826 26.8495 27.9909 21.8927C28.314 21.107 28.7296 19.4317 29.8606 20.1943C30.3916 20.5409 31.4996 22.1469 32.042 22.7362C34.6504 25.5208 37.7667 28.0049 40.7445 30.3966C42.2911 30.4891 43.8492 30.1771 45.4073 30.2233C46.9655 30.2695 47.9927 30.7548 48.9045 30.154C51.3744 28.5364 55.1601 24.9777 57.2145 22.7824C57.7916 22.17 58.8419 20.6449 59.3959 20.2405C59.9499 19.8361 60.4923 20.0094 60.8386 20.6449C62.1543 23.0828 63.297 28.0858 63.6432 30.8704C63.9433 33.2505 63.9433 35.5614 63.7125 37.9416C65.2244 39.6747 67.3135 41.2576 69.5641 41.8931C71.8148 42.5286 71.8263 42.1588 72.1841 42.6095C72.5419 43.0601 72.2533 44.7701 72.1495 45.4634C71.6532 48.6292 70.5336 51.6564 69.1833 54.545C69.9796 54.7183 74.4347 55.6889 72.9574 57.1678C71.48 58.6467 71.053 56.8905 70.3605 56.6594C69.668 56.4283 68.5831 56.0586 68.2253 56.1857C67.8675 56.3128 66.344 58.9356 65.9631 59.2822C67.856 59.6982 69.795 60.3221 71.5724 61.1078C72.3688 61.466 74.5963 62.2401 74.0077 63.3609C73.4191 64.4816 71.6647 63.0604 70.8799 62.7254C68.8716 61.8704 66.7941 61.1887 64.6474 60.7843C63.2393 61.8935 61.912 63.072 60.3769 64.0194C50.4741 70.1663 35.8392 69.6348 26.629 62.4019C26.1904 62.0668 25.0593 60.8305 24.6553 60.7958C24.0782 60.738 21.4583 61.5931 20.7427 61.8357C20.0271 62.0783 19.1845 62.4134 18.4228 62.7369C17.4302 63.1644 15.8952 64.5278 15.1565 63.2222V62.6445V62.5983ZM43.7222 66.5152V60.2297L40.2828 56.1741C39.7173 55.0303 40.329 53.8864 41.6101 53.7246C42.8912 53.5629 46.4923 53.5629 47.6926 53.7246C49.0545 53.9095 49.5623 55.2267 48.8468 56.359L45.4766 60.3683C45.4766 62.4134 45.3496 64.4816 45.5689 66.5152C51.1666 66.2032 57.2837 64.6318 61.6811 61.0269C66.0785 57.422 62.5237 60.4145 62.3852 60.2874C61.1733 60.1834 59.973 59.9293 58.7611 59.8253C57.5492 59.7213 55.6564 59.883 54.7561 59.6866C53.8674 59.4902 53.7866 58.1037 54.8484 57.9766C56.8683 57.7339 60.123 58.1846 62.2121 58.4619C64.3011 58.7392 63.6548 58.8316 63.9549 58.7969C64.2549 58.7623 65.0398 57.7571 65.2822 57.4682C65.5245 57.1793 66.5171 55.8622 66.4363 55.8044C64.3011 55.5502 62.0851 55.4693 59.9268 55.5733C57.7685 55.6773 56.4297 56.1164 55.8987 55.8159C55.2986 55.4809 55.3678 54.5565 56.0142 54.3023C56.6605 54.0481 56.7644 54.1406 57.076 54.0944C59.015 53.794 61.1041 53.8055 63.0546 53.7246L67.579 54.0597C68.8255 51.5871 69.7834 48.9758 70.3028 46.2375C70.372 45.8678 70.7529 44.0768 70.5221 43.9151C70.2913 43.7533 68.837 43.4876 68.3753 43.3258C66.7595 42.7481 65.0629 41.6851 63.7933 40.5297C62.5237 39.3743 62.2121 38.993 62.0389 38.6001C61.7504 37.9416 62.1544 36.0351 62.1774 35.2263C62.2121 33.9669 62.0851 32.4648 61.9351 31.2054C61.5773 28.2591 60.7578 25.3705 59.7652 22.5975C58.1263 24.3191 56.4643 26.0291 54.6984 27.6121C53.9482 28.2938 49.3315 32.2569 48.766 32.2915C48.2004 32.3262 47.6118 32.0836 47.1501 32.0489C45.5458 31.9449 43.8146 31.9334 42.1987 32.0489C41.6678 32.0836 40.756 32.384 40.3059 32.2107C36.4856 29.3221 32.8384 26.1678 29.6413 22.586C28.591 25.1972 27.7716 28.1436 27.4138 30.9628C27.056 33.782 27.3099 35.3072 27.4138 37.7451C27.4484 38.6001 27.183 38.8081 26.6636 39.4205C24.7246 41.7082 21.7006 43.3258 18.7921 43.9266C18.9999 47.4622 20.2002 50.9632 21.8507 54.0597C25.3017 53.7246 28.8565 53.5398 32.2959 54.0713C33.3809 54.233 34.385 54.4179 33.6001 55.7466C32.3075 56.0701 30.784 55.608 29.4336 55.5502C27.2753 55.4462 25.0593 55.5271 22.9241 55.7813C22.7625 55.8968 25.0593 58.7045 25.3132 58.7623C26.5712 58.5774 27.8293 58.3348 29.0989 58.2077C30.3685 58.0806 33.0115 57.8033 34.5119 57.9766C35.5738 58.1037 35.493 59.4902 34.6043 59.6866C33.704 59.8946 31.6958 59.7328 30.5993 59.8253C29.5028 59.9177 28.1871 60.1834 26.9752 60.2874C26.9175 60.5185 27.0675 60.507 27.1714 60.611C27.5177 60.9691 28.2333 61.466 28.6718 61.7664C33.0461 64.8398 38.4938 66.2263 43.803 66.5152H43.7222ZM47.1732 55.5617H42.1064L44.5994 58.5543C44.7379 58.589 44.7956 58.4619 44.8764 58.381C45.6728 57.63 46.3884 56.359 47.1847 55.5617H47.1732Z" fill="#46204D"/>
<path d="M57.2954 42.4477C58.0687 42.39 59.9616 42.1127 60.1693 43.0717C60.5502 44.7701 59.3845 47.4623 58.2995 48.7563C55.668 51.9107 52.2055 51.1019 49.4355 48.6408C48.6738 47.9591 48.2813 47.6934 48.87 46.6997C50.3473 44.1578 54.5254 42.6788 57.307 42.4593L57.2954 42.4477ZM57.9879 44.1693C55.2872 44.2964 52.4364 45.2092 50.6359 47.3121C52.344 48.7563 54.4908 49.9349 56.4529 48.1786C57.2377 47.4854 58.4034 45.4287 58.4496 44.4004C58.4958 43.3721 58.1841 44.1578 57.9879 44.1693Z" fill="#46204D"/>
<path d="M29.757 42.4362C30.4957 42.2745 32.0307 42.4362 32.8271 42.5402C35.3778 42.8637 38.3209 44.0769 39.9829 46.0989C40.837 47.1388 41.0794 47.4739 40.0407 48.4675C36.3358 52.0147 31.7883 51.5872 29.7339 46.6766C29.3646 45.7985 28.4182 42.7366 29.757 42.4362ZM30.8188 44.1462C31.1305 45.8447 32.1115 48.1209 33.8197 48.8142C35.5278 49.5074 37.2706 48.4444 38.6557 47.3121C36.7859 45.0359 33.6812 44.2502 30.8304 44.1462H30.8188Z" fill="#46204D"/>
<path d="M59.7074 36.6128C58.9111 37.4101 57.8608 36.012 57.1913 35.5614C56.4527 35.0646 55.4255 34.5331 54.5714 34.2558C53.7173 33.9785 52.6208 33.9323 52.1592 33.6781C51.6167 33.3777 51.709 32.6613 52.0668 32.2569C52.6785 31.5636 54.2251 30.6162 55.01 29.8998C55.7948 29.1835 56.395 28.5364 57.0298 27.8778C57.5145 27.3695 57.8146 26.4105 58.7264 26.8611C59.6382 27.3117 59.6036 28.8946 59.719 29.5648C59.9729 31.0899 59.996 32.6266 59.9614 34.1518C59.9267 35.6769 60.1114 36.1969 59.7074 36.6013V36.6128ZM58.2301 34.1171C58.1955 33.3314 58.2763 32.5342 58.2301 31.7485C58.1839 30.9628 58.0108 29.611 57.8261 29.611L54.7791 32.488C56.0256 32.7999 57.1452 33.4354 58.2301 34.1056V34.1171Z" fill="#46204D"/>
<path d="M31.592 26.9997C31.7767 27.1499 32.0537 27.6698 32.2614 27.8894C32.8616 28.5133 33.531 29.2065 34.1658 29.7958C35.2276 30.7664 36.5088 31.5636 37.4552 32.615C37.9053 34.0247 35.9201 33.8976 34.9737 34.1749C33.9927 34.4637 33.0116 34.949 32.1691 35.5267C31.3266 36.1044 30.634 36.9132 30.1955 36.8901C29.7569 36.867 29.3875 36.4742 29.3298 36.0235C29.1336 34.637 29.2837 31.8294 29.4568 30.3966C29.6299 28.9639 29.9877 25.7056 31.592 27.0112V26.9997ZM34.5121 32.2684C34.4774 32.2222 33.7618 31.7831 33.5887 31.6329C32.9539 31.0783 32.2614 30.2811 31.6266 29.7843C30.9918 29.2874 31.4535 29.507 31.3381 29.7265C31.2227 29.946 31.0726 31.425 31.0495 31.7485C31.0034 32.5342 31.0842 33.3314 31.0495 34.1171C31.6613 33.7936 32.2268 33.3892 32.85 33.1003C33.4733 32.8115 34.1658 32.6959 34.4313 32.5111C34.6967 32.3262 34.5351 32.3146 34.5005 32.28L34.5121 32.2684Z" fill="#46204D"/>
<path d="M34.5121 32.2684C34.4775 32.2222 33.7619 31.7831 33.5887 31.6329C32.954 31.0783 32.2615 30.2811 31.6267 29.7842C30.9919 29.2874 31.4535 29.5069 31.3381 29.7265C31.2227 29.946 31.0727 31.4249 31.0496 31.7484C31.0034 32.5341 31.0842 33.3314 31.0496 34.1171C31.6613 33.7935 32.2268 33.3891 32.8501 33.1003C33.4733 32.8114 34.1658 32.6959 34.4313 32.511C34.6968 32.3262 34.5352 32.3146 34.5005 32.2799L34.5121 32.2684Z" fill="#EDECED"/>
<path d="M58.2303 34.1171C58.1956 33.3314 58.2764 32.5342 58.2303 31.7485C58.1841 30.9628 58.011 29.611 57.8263 29.611L54.7793 32.488C56.0258 32.7999 57.1454 33.4354 58.2303 34.1056V34.1171Z" fill="#EDECED"/>
<path d="M30.8186 44.1462C31.1302 45.8447 32.1113 48.1209 33.8194 48.8141C35.5276 49.5074 37.2704 48.4444 38.6554 47.3121C36.7857 45.0359 33.6809 44.2502 30.8301 44.1462H30.8186Z" fill="#FFDB7D"/>
<path d="M57.9878 44.1692C55.287 44.2963 52.4362 45.2091 50.6357 47.312C52.3439 48.7563 54.4907 49.9348 56.4528 48.1786C57.2376 47.4853 58.4033 45.4286 58.4495 44.4003C58.4956 43.372 58.184 44.1577 57.9878 44.1692Z" fill="#FFDB7D"/>
<path d="M47.1733 55.5618H42.1064L44.5995 58.5543C44.738 58.589 44.7957 58.4619 44.8765 58.381C45.6728 57.63 46.3884 56.359 47.1848 55.5618H47.1733Z" fill="#91A780"/>
</g>
<g clip-path="url(#clip1_29_2608)">
<g style="mix-blend-mode:multiply" opacity="0.6">
<path d="M115 88.6C139.466 88.6 159.3 68.7662 159.3 44.3C159.3 19.8338 139.466 0 115 0C90.534 0 70.7002 19.8338 70.7002 44.3C70.7002 68.7662 90.534 88.6 115 88.6Z" fill="#C4E132"/>
</g>
<path opacity="0.6" d="M114.7 84.2C136.792 84.2 154.7 66.2913 154.7 44.2C154.7 22.1086 136.792 4.19995 114.7 4.19995C92.6088 4.19995 74.7002 22.1086 74.7002 44.2C74.7002 66.2913 92.6088 84.2 114.7 84.2Z" fill="#C4E132" stroke="#F8F8FF" stroke-miterlimit="10"/>
</g>
<path d="M116.53 21.4465L112.214 25.8371C111.671 26.1491 110.228 25.71 109.559 25.71C108.89 25.71 107.562 26.1375 106.881 25.8602L102.588 21.4465C102.588 23.7689 102.807 26.0682 102.68 28.4021C99.7024 31.6142 98.8483 35.612 99.9217 39.8524C100.245 41.1349 100.891 41.9668 101.295 43.0876C101.791 44.4972 101.226 46.1841 101.087 47.6746C100.014 59.9336 101.872 74.2031 116.599 76.0865C125.567 77.2303 132.885 71.9616 136.567 64.1047C134.535 66.3347 132.4 68.5993 129.584 69.8587C126.71 71.1412 123.928 71.2914 120.985 70.0783C113.183 66.8546 114.106 53.5326 115.411 46.7849C115.872 44.3701 115.988 44.6243 117.327 42.8218C120.027 39.1938 120.397 34.3063 117.95 30.4357C115.503 26.565 116.346 28.5639 116.311 28.1479C116.276 27.732 116.403 27.7089 116.403 27.4894C116.403 25.4674 116.311 23.4338 116.507 21.4349L116.53 21.4465Z" fill="#CCC7FF"/>
<path d="M120.327 78.0622C119.646 78.1084 118.7 78.1084 118.019 78.0622C102.288 76.9992 98.2943 63.3883 99.1253 49.7543C99.9563 36.1204 99.6216 46.2996 99.7024 44.682C99.7832 43.0644 99.1715 42.9489 98.7213 41.8512C96.8285 37.1487 97.5672 31.5218 100.937 27.6973L100.857 20.0022C101.145 18.9854 102.403 18.6966 103.153 19.4129L107.401 23.9191C107.747 24.2773 108.197 23.9769 108.613 23.9653C109.605 23.9422 110.598 24.0231 111.556 24.0231C113.114 22.3593 114.614 20.6146 116.322 19.1125C117.026 18.8006 117.973 19.1587 118.181 19.9213C118.388 20.6839 118.25 22.6712 118.238 23.5609C118.215 24.9243 118.008 26.3224 118.123 27.7089C122.082 32.2381 122.451 38.8009 118.862 43.6768C118.538 44.1159 117.996 44.5665 117.731 44.9593C117.257 45.6526 117.015 47.7901 116.876 48.7145C115.999 54.6649 115.087 66.5889 122.532 68.7379C129.018 70.6097 134.304 64.5669 137.409 59.7025C137.778 59.1248 138.736 57.0451 139.267 56.9411C141.114 56.5945 140.098 59.6217 139.868 60.5344C137.582 69.3734 129.699 77.4267 120.316 78.0391L120.327 78.0622ZM116.53 21.4465L112.214 25.8371C111.671 26.1491 110.228 25.71 109.559 25.71C108.89 25.71 107.562 26.1375 106.881 25.8602L102.588 21.4465C102.588 23.7689 102.807 26.0682 102.68 28.4021C99.7024 31.6142 98.8483 35.612 99.9217 39.8524C100.245 41.1349 100.891 41.9668 101.295 43.0876C101.791 44.4972 101.226 46.1841 101.087 47.6746C100.014 59.9336 101.872 74.2031 116.599 76.0864C125.567 77.2303 132.885 71.9616 136.567 64.1047C134.535 66.3347 132.4 68.5993 129.584 69.8587C126.71 71.1412 123.928 71.2914 120.985 70.0782C113.183 66.8546 114.106 53.5326 115.411 46.7849C115.872 44.3701 115.988 44.6243 117.327 42.8218C120.027 39.1938 120.397 34.3063 117.95 30.4357C115.503 26.565 116.346 28.5639 116.311 28.1479C116.276 27.732 116.403 27.7089 116.403 27.4893C116.403 25.4674 116.311 23.4338 116.507 21.4349L116.53 21.4465Z" fill="#421775"/>
<path d="M111.44 41.9899C111.267 41.8859 109.905 42.2094 109.559 42.2094C109.017 42.2094 108.301 41.9668 107.736 41.9552C107.505 42.0015 107.239 43.8963 106.097 43.4688C105.15 43.1107 105.566 41.6202 105.335 40.8807C105.104 40.1412 104.111 40.1874 103.985 39.448C103.858 38.7085 104.435 38.281 105.035 38.3965C105.635 38.5121 106.016 39.1822 106.351 39.4018C108.116 40.5456 110.286 40.6843 112.179 39.7368C113.022 39.3209 114.314 37.5993 115.018 38.9165C115.722 40.2337 114.06 40.3261 113.83 40.7998C113.599 41.2735 113.957 43.5959 112.698 43.5382C111.637 43.4804 111.764 42.1748 111.452 41.9783L111.44 41.9899Z" fill="#421775"/>
<path d="M115.457 32.2035C116.392 33.1394 114.303 34.6299 113.483 34.4797C112.664 34.3295 112.837 33.9597 112.837 33.6131C112.837 32.9083 114.741 31.4756 115.457 32.2035Z" fill="#421775"/>
<path d="M104.169 31.9607C105.15 31.8336 107.378 34.2023 105.519 34.468C104.931 34.5489 103.476 33.613 103.396 33.0237C103.315 32.4345 103.638 32.0301 104.169 31.9607Z" fill="#421775"/>
<path d="M104.077 24.9475L105.9 26.8193L106.096 27.0272L106.362 27.1312C106.685 27.2583 107.043 27.3276 107.47 27.3276C107.897 27.3276 108.405 27.2468 108.82 27.1774C109.086 27.1312 109.397 27.085 109.559 27.085C109.674 27.085 109.998 27.1428 110.228 27.1774C110.667 27.2468 111.163 27.3276 111.636 27.3276C112.11 27.3276 112.56 27.2352 112.906 27.0272L113.068 26.9348L113.206 26.7961L115.018 24.959C115.018 25.3865 115.018 25.814 115.018 26.2415C115.018 26.6344 115.018 27.0388 115.018 27.4432C115.018 27.4547 115.018 27.4778 115.018 27.4894C114.972 27.6627 114.903 27.94 114.937 28.2866C114.995 28.9452 115.434 29.4998 116.253 30.5166C116.449 30.7477 116.703 31.0712 116.784 31.1868C118.873 34.4913 118.642 38.7432 116.219 42.0015C115.988 42.3135 115.791 42.5561 115.63 42.7756C114.672 44.0004 114.464 44.3932 114.049 46.5308C113.622 48.7261 112.71 54.4339 113.414 59.9337C113.749 62.6027 114.43 64.8789 115.434 66.7045C116.646 68.9229 118.342 70.4942 120.466 71.3724C121.966 71.9963 123.49 72.3083 125.002 72.3083C126.514 72.3083 127.495 72.1003 128.776 71.6728C128.753 71.6959 128.718 71.7074 128.695 71.7305C125.798 73.8103 122.555 74.8617 119.046 74.8617C115.538 74.8617 117.546 74.8155 116.796 74.7115C113.564 74.2956 110.84 73.221 108.705 71.4995C106.789 69.9627 105.289 67.8599 104.227 65.2486C102.449 60.8696 101.861 55 102.495 47.8017C102.53 47.432 102.599 47.0276 102.669 46.6001C102.876 45.3638 103.107 43.9773 102.634 42.637C102.438 42.0824 102.207 41.6087 101.976 41.1581C101.699 40.6034 101.457 40.1182 101.307 39.5173C100.326 35.6467 101.157 32.1226 103.73 29.3496L104.065 28.9799L104.088 28.4831C104.157 27.293 104.134 26.1144 104.088 24.959M116.53 21.4465L112.214 25.8371C112.075 25.918 111.867 25.9527 111.636 25.9527C110.967 25.9527 110.055 25.71 109.559 25.71C108.982 25.71 108.139 25.9527 107.47 25.9527C106.8 25.9527 107.054 25.9296 106.893 25.8602L102.599 21.4465C102.599 23.7689 102.819 26.0682 102.692 28.4022C99.7139 31.6143 98.8598 35.612 99.9332 39.8524C100.256 41.1349 100.903 41.9668 101.307 43.0876C101.803 44.4972 101.237 46.1841 101.099 47.6746C100.026 59.9337 101.884 74.2032 116.611 76.0865C117.43 76.1905 118.25 76.2482 119.035 76.2482C126.883 76.2482 133.219 71.2453 136.578 64.1163C134.547 66.3463 132.412 68.6109 129.595 69.8703C128.049 70.552 126.537 70.9217 125.002 70.9217C123.467 70.9217 122.359 70.656 120.997 70.0898C113.195 66.8662 114.118 53.5442 115.422 46.7965C115.884 44.3817 115.999 44.6359 117.338 42.8334C120.039 39.2054 120.408 34.3179 117.961 30.4473C117.627 29.9273 116.357 28.5755 116.322 28.1595C116.299 27.94 116.415 27.7205 116.415 27.5009C116.415 25.479 116.322 23.4454 116.519 21.4465H116.53Z" fill="#BAB7F5"/>
<g clip-path="url(#clip2_29_2608)">
<g style="mix-blend-mode:multiply" opacity="0.6">
<path d="M185.6 88.6C210.066 88.6 229.9 68.7662 229.9 44.3C229.9 19.8338 210.066 0 185.6 0C161.134 0 141.3 19.8338 141.3 44.3C141.3 68.7662 161.134 88.6 185.6 88.6Z" fill="#FF6767"/>
</g>
<path opacity="0.6" d="M185.3 84.2C207.391 84.2 225.3 66.2913 225.3 44.2C225.3 22.1086 207.391 4.19995 185.3 4.19995C163.209 4.19995 145.3 22.1086 145.3 44.2C145.3 66.2913 163.209 84.2 185.3 84.2Z" fill="#FF6767" stroke="#F8F8FF" stroke-miterlimit="10"/>
<mask id="mask0_29_2608" style="mask-type:alpha" maskUnits="userSpaceOnUse" x="146" y="7" width="78" height="77">
<circle cx="184.8" cy="45.5" r="38.5" fill="#D9D9D9"/>
</mask>
<g mask="url(#mask0_29_2608)">
<path d="M180.053 40.1076C178.818 40.1076 177.618 39.9458 176.476 39.6107C173.371 38.7211 170.993 36.6529 170.104 34.0994C169.343 31.9156 169.758 29.6394 171.282 27.5019L171.374 27.3748L171.928 23.4579C172.286 23.897 172.655 24.3592 173.059 24.6596C173.082 24.6827 173.105 24.6942 173.14 24.7173C173.29 24.8444 173.532 25.0293 173.913 25.064C173.936 25.064 173.959 25.064 173.994 25.064C174.271 25.064 174.71 24.9138 175.806 24.5209C176.325 24.336 176.926 24.1165 177.156 24.0703C178.149 23.8508 179.176 23.7352 180.203 23.7352C181.231 23.7352 182.246 23.8508 183.216 24.0703C183.493 24.1396 184.058 24.3476 184.555 24.544C185.547 24.9253 185.974 25.0755 186.286 25.0755C187.048 25.0755 187.729 24.2898 188.444 23.4348L188.998 27.3401L189.068 27.4557C190.81 30.2634 191.053 32.9555 189.772 35.2548C188.167 38.1434 184.255 40.0845 180.053 40.0845V40.1076Z" fill="#7CE882"/>
<path d="M180.192 24.3939C181.173 24.3939 182.131 24.4979 183.066 24.7174C183.308 24.7752 183.874 24.9832 184.324 25.1565C185.409 25.5724 185.859 25.7342 186.274 25.7342C186.921 25.7342 187.463 25.3875 187.983 24.8907L188.329 27.3171L188.363 27.5829L188.502 27.8139C190.118 30.4136 190.349 32.8862 189.194 34.966C187.694 37.6581 184.012 39.4722 180.03 39.4722C176.048 39.4722 177.71 39.3104 176.637 38.9984C175.206 38.5825 173.89 37.8892 172.851 36.9764C171.836 36.0868 171.086 35.0238 170.693 33.8915C170.012 31.9157 170.381 29.8359 171.79 27.8717L171.974 27.6175L172.02 27.3056L172.355 24.9138C172.459 25.0063 172.563 25.0987 172.678 25.1796C172.701 25.1911 172.724 25.2142 172.736 25.2258C172.921 25.376 173.278 25.6533 173.844 25.7111C173.89 25.7111 173.936 25.7111 173.982 25.7111C174.363 25.7111 174.79 25.5724 176.014 25.1334C176.464 24.9716 177.087 24.7521 177.295 24.7058C178.241 24.4979 179.222 24.3823 180.203 24.3823M188.883 22.0368C188.26 22.499 187.048 24.4632 186.297 24.4632C185.882 24.4632 184.07 23.6313 183.366 23.4695C182.339 23.2385 181.277 23.1229 180.203 23.1229C179.13 23.1229 178.057 23.2385 177.018 23.4695C176.406 23.6082 174.34 24.4517 173.994 24.4517C173.648 24.4517 173.994 24.4517 173.982 24.4517C173.74 24.4285 173.625 24.2899 173.452 24.1628C172.794 23.666 172.159 22.5799 171.501 22.0253L170.785 27.1322C166.85 32.6436 170.393 38.5132 176.314 40.2116C177.537 40.5583 178.807 40.7316 180.065 40.7316C187.463 40.7316 194.481 34.9545 189.621 27.1207L188.894 22.0253L188.883 22.0368Z" fill="#87CC64"/>
<path d="M171.143 19.1482L174.329 22.4643C177.364 21.2742 180.515 21.0316 183.701 21.7364C186.886 22.4412 185.755 22.4643 185.963 22.4643C186.332 22.4643 188.629 19.4487 189.218 19.1367H189.679C189.968 19.3216 190.279 19.4024 190.337 19.7953L191.341 26.6238C195.693 33.0018 191.018 40.2694 184.278 41.9794C184.035 45.1337 184.751 50.3447 188.144 51.6272C191.538 52.9097 192.646 52.54 195.162 53.938C201.129 57.2541 201.856 63.1468 199.582 69.1781C200.609 68.6812 201.625 68.1266 202.606 67.5374C209.185 63.6205 216.295 57.1501 214.633 48.6231C213.409 42.3607 209.15 41.5635 203.956 44.3249C203.31 44.66 200.759 46.5202 200.425 46.5433C199.848 46.578 199.294 45.9078 199.547 45.3417C199.905 44.5098 203.391 42.5918 204.337 42.1758C210.154 39.6339 214.736 41.4132 216.225 47.7334C218.661 58.0629 209.9 65.5963 201.844 70.01C200.817 70.5761 198.913 71.2809 198.093 71.9049C197.574 72.2977 196.939 73.2336 196.362 73.742C191.918 77.6935 183.932 78.433 178.207 78.1904C177.63 78.1673 176.383 78.1095 175.899 77.9593C174.837 77.6242 174.352 76.3648 174.825 75.3711C175.298 74.3775 176.314 74.5161 176.51 73.3722C176.891 71.1307 174.56 65.758 173.567 63.5743C171.882 59.8769 168.246 55.0126 168.72 50.9224C169.02 48.3342 171.039 48.2187 172.609 46.9824C174.19 45.7345 175.033 43.8396 175.46 41.9101C174.34 41.3324 173.117 40.8933 172.044 40.1769C167.958 37.4501 166.053 32.6782 168.177 28.0219C168.385 27.5713 168.87 26.9936 169.008 26.5545C169.458 25.0871 169.504 20.4423 170.128 19.4949C170.751 18.5474 170.428 19.2753 170.532 19.1482H171.109H171.143ZM188.883 22.0368C188.26 22.499 187.036 24.4747 186.286 24.4632C185.536 24.4516 184.059 23.6313 183.354 23.4695C181.288 22.9958 179.084 23.0074 177.018 23.4695C174.952 23.9317 174.271 24.4747 173.983 24.4516C173.694 24.4285 173.625 24.2899 173.452 24.1628C172.794 23.6659 172.159 22.5799 171.501 22.0252L170.786 27.1322C166.85 32.6436 170.393 38.5131 176.314 40.2116C184.728 42.638 195.312 36.2947 189.622 27.1207L188.894 22.0252L188.883 22.0368ZM182.431 42.4416C181.381 42.4993 180.319 42.6149 179.257 42.5571C178.195 42.4993 177.48 42.2105 177.237 42.3722C176.603 44.7755 175.552 47.0517 173.475 48.5307C172.332 49.351 170.739 49.5936 170.474 51.1766C170.012 53.8687 172.24 56.8959 173.382 59.1605C175.125 62.5921 179.142 70.4721 178.126 74.181C177.849 75.2094 177.203 75.6138 176.429 76.2377C180.654 76.5034 184.982 76.4803 189.102 75.4289C186.713 73.5918 184.451 71.304 183.955 68.196C183.458 65.0879 184.843 61.9798 186.805 59.692C186.967 59.5072 187.948 58.4788 188.075 58.4211C188.825 58.0976 189.552 58.7677 189.322 59.5534C189.091 60.3391 187.636 61.5061 187.336 61.9567C183.735 67.3872 186.378 71.8471 191.457 74.7241C194.873 73.2914 197.355 70.865 198.393 67.2485C200.252 60.7666 197.897 56.2835 191.514 54.3078C189.056 53.5452 186.967 53.7301 185.086 51.6272C182.927 49.2239 182.454 45.5728 182.443 42.4531L182.431 42.4416Z" fill="#003E90"/>
<path d="M179.061 33.0133C179.407 32.9324 180.965 32.9324 181.312 33.0133C182.662 33.3137 181.485 35.2317 180.977 35.8672C180.469 36.5027 180.192 36.572 179.65 36.1676C179.107 35.7632 178.507 34.4922 178.438 34.2612C178.276 33.7412 178.472 33.1404 179.049 33.0133H179.061Z" fill="#003E90"/>
<path d="M174.56 28.0566C174.779 28.0335 176.706 28.9578 176.903 29.1311C177.664 29.8244 177.053 30.8874 175.956 30.6563C174.86 30.4252 174.075 29.6857 173.959 29.5355C173.544 29.0156 173.879 28.1143 174.56 28.0566Z" fill="#003E90"/>
<path d="M185.397 28.172C186.298 27.9872 186.932 28.6573 186.471 29.4777C186.009 30.298 184.67 30.5753 184.405 30.6331C183.366 30.8757 182.743 29.9167 183.424 29.1888C184.105 28.4609 185.201 28.2067 185.397 28.172Z" fill="#003E90"/>
<path d="M180.573 75.7409C179.765 75.7409 178.934 75.7178 178.034 75.6832C178.334 75.3365 178.588 74.9206 178.738 74.3544C179.811 70.426 175.864 62.65 173.959 58.9064V58.8833C173.705 58.4096 173.428 57.9128 173.128 57.3928C172.02 55.4402 170.762 53.2218 171.097 51.3037C171.235 50.5181 171.801 50.1945 172.724 49.7208C173.094 49.5244 173.486 49.328 173.844 49.0738C175.667 47.7797 176.902 45.8386 177.722 43.0078C177.953 43.0309 178.253 43.0771 178.507 43.1234C178.807 43.1696 179.049 43.2158 179.211 43.2273C179.407 43.2273 179.603 43.2389 179.811 43.2389C180.423 43.2389 181.034 43.1927 181.623 43.158H181.796C181.9 47.1673 182.823 50.0906 184.589 52.0663C186.101 53.7417 187.717 54.0999 189.437 54.4581C190.037 54.5852 190.66 54.7238 191.307 54.9202C194.319 55.8561 196.385 57.3582 197.47 59.3917C198.543 61.4253 198.647 64.0134 197.77 67.0868C196.87 70.2527 194.757 72.5866 191.491 74.0309C188.721 72.4018 186.99 70.4029 186.471 68.2538C186.02 66.382 186.494 64.3831 187.867 62.3149C187.994 62.1301 188.525 61.5061 188.917 61.0555C189.783 60.0503 189.875 59.9348 189.921 59.7499C190.072 59.2531 189.991 58.7331 189.691 58.3403C189.402 57.959 188.94 57.7279 188.467 57.7279C187.994 57.7279 188.029 57.7741 187.821 57.8666C187.486 58.0168 186.332 59.2877 186.32 59.3108C183.978 62.0492 182.858 65.4115 183.32 68.3231C183.804 71.3157 185.743 73.4994 187.682 75.1286C185.559 75.5561 183.216 75.7756 180.561 75.7756L180.573 75.7409Z" fill="#7CE882"/>
<path d="M178.184 43.6894C178.265 43.701 178.345 43.7126 178.415 43.7241C178.738 43.7819 178.992 43.8165 179.199 43.8281C179.407 43.8281 179.603 43.8397 179.823 43.8397C180.284 43.8397 180.746 43.8165 181.196 43.7934C181.392 47.641 182.35 50.4833 184.128 52.4591C185.778 54.2962 187.579 54.6775 189.31 55.0473C189.899 55.1744 190.51 55.3015 191.122 55.4979C193.961 56.376 195.912 57.7741 196.904 59.6574C197.897 61.5407 197.989 63.9671 197.158 66.8788C196.339 69.7558 194.446 71.9049 191.526 73.2798C189.702 72.1591 187.648 70.4259 187.082 68.0804C186.679 66.3935 187.117 64.5564 188.387 62.6499C188.502 62.4882 189.056 61.8411 189.391 61.4483C190.291 60.4084 190.43 60.2467 190.522 59.9116C190.73 59.2183 190.614 58.502 190.199 57.9358C189.795 57.3928 189.148 57.0577 188.467 57.0577C187.787 57.0577 187.867 57.1155 187.579 57.2426C187.336 57.3466 187.175 57.4736 186.552 58.1091C186.298 58.3633 185.974 58.7099 185.847 58.8602C184.716 60.1773 183.828 61.6794 183.274 63.2161C182.627 64.9839 182.443 66.7286 182.708 68.3924C182.951 69.8944 183.608 72.0666 186.321 74.701C184.566 74.9783 182.674 75.1054 180.573 75.1054C178.472 75.1054 179.65 75.1054 179.153 75.0823C179.234 74.909 179.292 74.7241 179.35 74.5161C179.857 72.6328 179.419 69.8944 177.976 66.1393C176.868 63.2277 175.402 60.3391 174.525 58.6175V58.5944C174.26 58.1091 173.983 57.6007 173.683 57.0692C172.632 55.209 171.432 53.0946 171.72 51.3961C171.801 50.9571 172.067 50.7606 173.013 50.2754C173.382 50.0789 173.809 49.8594 174.213 49.5821C176.037 48.2765 177.318 46.3931 178.172 43.701M177.503 42.326C177.376 42.326 177.284 42.3376 177.237 42.3723C176.603 44.7755 175.552 47.0517 173.475 48.5307C172.332 49.351 170.739 49.5937 170.474 51.1766C170.012 53.8687 172.24 56.8959 173.382 59.1606C175.125 62.5922 179.142 70.4722 178.126 74.1811C177.849 75.2094 177.203 75.6138 176.429 76.2377C177.803 76.3186 179.176 76.3764 180.561 76.3764C183.435 76.3764 186.309 76.1337 189.102 75.4289C186.713 73.5918 184.451 71.3041 183.955 68.196C183.47 65.1457 184.843 61.9798 186.805 59.6921C186.967 59.5072 187.948 58.4789 188.075 58.4211C188.214 58.3633 188.341 58.3402 188.467 58.3402C189.056 58.3402 189.506 58.9064 189.322 59.5534C189.275 59.7036 187.636 61.5061 187.336 61.9567C183.735 67.3872 186.378 71.8471 191.457 74.7241C194.873 73.2914 197.355 70.865 198.393 67.2485C200.252 60.7666 197.897 56.2836 191.514 54.3078C189.056 53.5452 186.967 53.7301 185.086 51.6272C182.927 49.2239 182.454 45.5728 182.443 42.4531C181.577 42.4994 180.711 42.5918 179.834 42.5918C178.957 42.5918 179.453 42.5918 179.269 42.5802C178.946 42.5687 177.999 42.3492 177.514 42.3492L177.503 42.326Z" fill="#87CC64"/>
</g>
</g>
<defs>
<clipPath id="clip0_29_2608">
<rect width="88.6" height="88.6" fill="white" transform="translate(0.100098)"/>
</clipPath>
<clipPath id="clip1_29_2608">
<rect width="88.6" height="88.6" fill="white" transform="translate(70.7002)"/>
</clipPath>
<clipPath id="clip2_29_2608">
<rect width="88.6" height="88.6" fill="white" transform="translate(141.3)"/>
</clipPath>
</defs>
</svg>
