<svg width="86" height="129" viewBox="0 0 86 129" fill="none" xmlns="http://www.w3.org/2000/svg">
<path d="M84.6177 127.886C84.6177 127.886 44.0843 98.546 72.2818 78.2675C94.3479 62.3984 25.9677 59.9918 15.6788 43.2119" stroke="#24A1DE" stroke-width="2.1"/>
<path fill-rule="evenodd" clip-rule="evenodd" d="M46.5934 26.0609C42.5705 25.0489 36.8143 24.949 31.2371 25.7861C29.2039 26.0913 27.2637 26.5076 25.4611 27.0276C24.127 26.3175 22.7735 25.5569 21.4097 24.7486C7.71895 16.6342 1.28093 8.3027 1.28093 4.24454C1.28093 0.186379 0.49614 -1.74626 0.063179 2.02517C-0.706413 8.72895 5.53178 17.7791 20.339 26.5551C21.1413 27.0306 21.9397 27.4907 22.733 27.9348C20.3321 28.8499 18.2737 29.9773 16.6957 31.2939C12.7695 34.5697 11.9271 38.8876 14.7729 43.7428L16.5846 42.6809C14.2672 38.7271 14.8897 35.5356 18.041 32.9064C19.7875 31.4493 22.2731 30.2224 25.2336 29.2905C37.8986 35.931 48.7763 38.1499 51.696 33.0829C53.5985 29.7811 51.3316 27.2529 46.5934 26.0609ZM46.0811 28.0975C49.6752 29.0016 50.8615 30.3248 49.8764 32.0344C47.934 35.4054 38.9987 33.7124 28.2874 28.4717C29.3368 28.2349 30.427 28.0312 31.5488 27.8629C36.8694 27.0643 42.3521 27.1594 46.0811 28.0975Z" fill="#24A1DE"/>
</svg>
