<svg width="24" height="25" viewBox="0 0 24 25" fill="none" xmlns="http://www.w3.org/2000/svg">
<path d="M22.2234 0.958984H1.77187C0.792187 0.958984 0 1.73242 0 2.68867V23.2246C0 24.1809 0.792187 24.959 1.77187 24.959H22.2234C23.2031 24.959 24 24.1809 24 23.2293V2.68867C24 1.73242 23.2031 0.958984 22.2234 0.958984ZM7.12031 21.4105H3.55781V9.9543H7.12031V21.4105ZM5.33906 8.39336C4.19531 8.39336 3.27188 7.46992 3.27188 6.33086C3.27188 5.1918 4.19531 4.26836 5.33906 4.26836C6.47813 4.26836 7.40156 5.1918 7.40156 6.33086C7.40156 7.46523 6.47813 8.39336 5.33906 8.39336ZM20.4516 21.4105H16.8937V15.8418C16.8937 14.5152 16.8703 12.8043 15.0422 12.8043C13.1906 12.8043 12.9094 14.2527 12.9094 15.748V21.4105H9.35625V9.9543H12.7687V11.5199H12.8156C13.2891 10.6199 14.4516 9.66836 16.1813 9.66836C19.7859 9.66836 20.4516 12.0402 20.4516 15.1246V21.4105Z" fill="#B2842B"/>
</svg>
