<svg width="112" height="128" viewBox="0 0 112 128" fill="none" xmlns="http://www.w3.org/2000/svg">
<path fill-rule="evenodd" clip-rule="evenodd" d="M69.3627 64.8273C61.6593 59.9291 51.5318 61.402 45.5428 68.2916V68.2916C39.1824 75.6083 39.5711 86.5999 46.4325 93.4491L64.1794 111.165C73.1426 120.112 87.9006 119.252 95.7642 109.325V109.325C103.569 99.4706 101.131 85.0273 90.523 78.2822L69.3627 64.8273Z" stroke="#111111" stroke-width="1.48755" stroke-linejoin="round"/>
<path d="M74.0497 68.0616L49.7016 96.697" stroke="#111111" stroke-width="1.11566" stroke-linejoin="round"/>
<path d="M44.9546 68.9012L51.6238 74.8336" stroke="#111111" stroke-width="1.11566" stroke-linejoin="round"/>
<rect width="5.57832" height="13.0161" rx="2.78916" transform="matrix(-0.656059 0.75471 0.75471 0.656059 53.3613 72.7764)" fill="#111111"/>
<path d="M44.9546 68.9009C44.9546 68.9009 23.4205 53.3133 38.4009 42.5399C50.124 34.1092 13.7957 32.8307 8.32954 23.916" stroke="#111111" stroke-width="1.11566"/>
<path fill-rule="evenodd" clip-rule="evenodd" d="M24.7536 14.8043C22.6164 14.2667 19.5583 14.2136 16.5953 14.6583C15.5151 14.8205 14.4844 15.0417 13.5267 15.3179C12.8179 14.9406 12.0988 14.5366 11.3743 14.1071C4.10085 9.79624 0.680527 5.36995 0.680527 3.21398C0.680527 1.058 0.263594 0.0312511 0.033577 2.03489C-0.375284 5.5964 2.93887 10.4044 10.8055 15.0669C11.2317 15.3195 11.6559 15.564 12.0773 15.7998C10.8018 16.286 9.70825 16.885 8.8699 17.5845C6.78403 19.3248 6.33652 21.6188 7.8484 24.1982L8.81091 23.634C7.5797 21.5335 7.91047 19.8379 9.58463 18.4411C10.5125 17.667 11.833 17.0152 13.4058 16.5201C20.1344 20.048 25.9133 21.2268 27.4645 18.5349C28.4752 16.7808 27.2709 15.4376 24.7536 14.8043ZM24.4814 15.8863C26.3908 16.3666 27.0211 17.0696 26.4978 17.9778C25.4658 19.7687 20.7188 18.8693 15.0282 16.0851C15.5857 15.9593 16.1649 15.8511 16.7609 15.7616C19.5876 15.3374 22.5004 15.3879 24.4814 15.8863Z" fill="#111111"/>
</svg>
