<svg width="43" height="42" viewBox="0 0 43 42" fill="none" xmlns="http://www.w3.org/2000/svg">
<path d="M41.7189 15.5322H28.2981C27.6841 15.5322 27.1578 15.1392 26.9824 14.5716L22.8596 1.9087C22.4649 0.642412 20.6667 0.642412 20.2281 1.9087L16.0615 14.6153C15.8861 15.1829 15.3598 15.5759 14.7457 15.5759H1.36877C0.053008 15.5759 -0.517157 17.2788 0.579314 18.0648L2.68454 19.5931L6.98271 22.2567C7.94761 22.9553 9.08794 23.3046 10.2721 23.2173L20.3597 22.606C20.9298 22.606 21.193 23.3046 20.7105 23.6539L12.5089 28.9374C11.4125 29.6361 10.8423 30.815 10.4914 32.0813L9.13179 35.9675L7.77217 40.1594C7.37744 41.4257 8.82478 42.4736 9.8774 41.6877L20.7105 33.8279C21.193 33.4786 21.8509 33.4786 22.3333 33.8279L33.1665 41.6877C34.2629 42.4736 35.7103 41.4257 35.2717 40.1594L31.1051 27.4528C30.9297 26.8852 31.1051 26.2739 31.5875 25.9245L42.4207 18.0648C43.5172 17.2788 42.947 15.5759 41.6312 15.5759L41.7189 15.5322Z" fill="#F9BD25"/>
</svg>
