<svg width="108" height="108" viewBox="0 0 108 108" fill="none" xmlns="http://www.w3.org/2000/svg">
<path d="M91.8183 38.4985C100.356 59.1766 90.0321 83.3718 68.9572 92.0737C47.7275 100.84 23.4953 90.9129 14.9572 70.2349C6.35637 49.4048 16.5886 25.4255 37.8183 16.6596C58.8932 7.95772 83.2175 17.6684 91.8183 38.4985ZM72.7867 66.645C73.3144 66.6051 73.7793 66.4131 74.3363 66.0051C74.6462 65.8772 74.9856 65.3811 75.0778 65.1651C75.3543 64.517 75.0404 63.7568 74.9148 63.4527C74.3498 62.0843 72.6333 60.1235 63.8076 51.488C60.7513 48.4788 54.6386 42.4604 45.1596 33.5607C43.6315 32.056 42.6349 31.3997 41.7973 31.5676C40.4949 31.9274 40.8461 34.096 41.013 36.6965C41.2093 38.9291 41.5018 41.8337 42.0668 43.2021C42.569 44.4185 43.5989 45.5949 45.3115 46.6675C56.646 53.9112 62.4074 57.7611 62.533 58.0652C62.6585 58.3693 62.939 58.6094 62.8469 58.8254C62.6625 59.2575 62.3526 59.3854 62.1348 59.2974C61.2972 59.4653 48.3543 53.5976 47.4833 53.2453C44.4349 52.0125 42.0358 50.1556 41.1259 54.9805C40.2748 59.0692 39.6335 61.4696 38.8452 65.7104C38.3295 68.4149 37.3155 70.7912 38.3494 72.8558C38.9438 73.8562 40.313 74.5366 43.4456 73.777C50.674 72.3941 66.5548 68.6842 72.7867 66.645Z" fill="#24A1DE"/>
</svg>
