<svg width="24" height="25" viewBox="0 0 24 25" fill="none" xmlns="http://www.w3.org/2000/svg">
<path d="M7.55016 22.7092C16.6045 22.7092 21.5583 15.2059 21.5583 8.70109C21.5583 8.49015 21.5536 8.27453 21.5442 8.06359C22.5079 7.36669 23.3395 6.50348 24 5.51453C23.1025 5.91383 22.1496 6.17461 21.1739 6.28796C22.2013 5.67214 22.9705 4.7047 23.3391 3.565C22.3726 4.13779 21.3156 4.54184 20.2134 4.75984C19.4708 3.97079 18.489 3.44834 17.4197 3.27328C16.3504 3.09821 15.2532 3.28028 14.2977 3.79132C13.3423 4.30237 12.5818 5.11393 12.1338 6.10054C11.6859 7.08715 11.5754 8.19384 11.8195 9.24953C9.86249 9.15132 7.94794 8.64293 6.19998 7.75733C4.45203 6.87172 2.90969 5.62867 1.67297 4.10875C1.0444 5.19247 0.852057 6.47487 1.13503 7.69532C1.418 8.91577 2.15506 9.98268 3.19641 10.6792C2.41463 10.6544 1.64998 10.4439 0.965625 10.0652V10.1261C0.964925 11.2634 1.3581 12.3658 2.07831 13.246C2.79852 14.1262 3.80132 14.7298 4.91625 14.9542C4.19206 15.1524 3.43198 15.1812 2.69484 15.0386C3.00945 16.0167 3.62157 16.8721 4.44577 17.4856C5.26997 18.099 6.26512 18.4398 7.29234 18.4605C5.54842 19.8303 3.39417 20.5734 1.17656 20.5698C0.783287 20.5692 0.390399 20.5451 0 20.4977C2.25286 21.943 4.87353 22.7106 7.55016 22.7092Z" fill="#B2842B"/>
</svg>
