<svg width="24" height="25" viewBox="0 0 24 25" fill="none" xmlns="http://www.w3.org/2000/svg">
<path d="M23.7609 8.15879C23.7609 8.15879 23.5266 6.5041 22.8047 5.77754C21.8906 4.82129 20.8688 4.8166 20.4 4.76035C17.0438 4.5166 12.0047 4.5166 12.0047 4.5166H11.9953C11.9953 4.5166 6.95625 4.5166 3.6 4.76035C3.13125 4.8166 2.10938 4.82129 1.19531 5.77754C0.473438 6.5041 0.24375 8.15879 0.24375 8.15879C0.24375 8.15879 0 10.1041 0 12.0447V13.8635C0 15.8041 0.239062 17.7494 0.239062 17.7494C0.239062 17.7494 0.473437 19.4041 1.19062 20.1307C2.10469 21.0869 3.30469 21.0541 3.83906 21.1572C5.76094 21.34 12 21.3963 12 21.3963C12 21.3963 17.0438 21.3869 20.4 21.1479C20.8688 21.0916 21.8906 21.0869 22.8047 20.1307C23.5266 19.4041 23.7609 17.7494 23.7609 17.7494C23.7609 17.7494 24 15.8088 24 13.8635V12.0447C24 10.1041 23.7609 8.15879 23.7609 8.15879ZM9.52031 16.0713V9.32598L16.0031 12.7104L9.52031 16.0713Z" fill="#B2842B"/>
</svg>
